<?xml version="1.0" encoding="UTF-8" standalone="no"?>
<!-- Generator: Adobe Illustrator 18.0.0, SVG Export Plug-In . SVG Version: 6.00 Build 0)  -->

<svg
   xmlns:dc="http://purl.org/dc/elements/1.1/"
   xmlns:cc="http://creativecommons.org/ns#"
   xmlns:rdf="http://www.w3.org/1999/02/22-rdf-syntax-ns#"
   xmlns:svg="http://www.w3.org/2000/svg"
   xmlns="http://www.w3.org/2000/svg"
   xmlns:sodipodi="http://sodipodi.sourceforge.net/DTD/sodipodi-0.dtd"
   xmlns:inkscape="http://www.inkscape.org/namespaces/inkscape"
   version="1.1"
   x="0px"
   y="0px"
   viewBox="0 0 40 40"
   enable-background="new 0 0 41 41"
   xml:space="preserve"
   id="svg2"
   inkscape:version="0.48.3.1 r9886"
   width="100%"
   height="100%"
   sodipodi:docname="foto-icon-color.svg"><metadata
   id="metadata35"><rdf:RDF><cc:Work
       rdf:about=""><dc:format>image/svg+xml</dc:format><dc:type
         rdf:resource="http://purl.org/dc/dcmitype/StillImage" /></cc:Work></rdf:RDF></metadata><defs
   id="defs33" /><sodipodi:namedview
   pagecolor="#ffffff"
   bordercolor="#666666"
   borderopacity="1"
   objecttolerance="10"
   gridtolerance="10"
   guidetolerance="10"
   inkscape:pageopacity="0"
   inkscape:pageshadow="2"
   inkscape:window-width="640"
   inkscape:window-height="480"
   id="namedview31"
   showgrid="false"
   fit-margin-top="0"
   fit-margin-left="0"
   fit-margin-right="0"
   fit-margin-bottom="0"
   inkscape:zoom="5.7560976"
   inkscape:cx="20.4"
   inkscape:cy="19"
   inkscape:window-x="0"
   inkscape:window-y="27"
   inkscape:window-maximized="0"
   inkscape:current-layer="svg2" />
<g
   id="Capa_1"
   transform="translate(-0.10000038,0.5)">
</g>
<g
   id="MAPA"
   transform="translate(-0.10000038,0.5)">
	<g
   id="ui_x5F_buttonCircle_big_x5F_blue">
	</g>
</g>
<g
   id="BOTONES"
   transform="translate(-0.10000038,0.5)">
</g>
<g
   id="SUPERIOR_BAR"
   transform="translate(-0.10000038,0.5)">
</g>
<g
   id="BUSCADOR-LUPA_1_"
   transform="translate(-0.10000038,0.5)">
</g>
<g
   id="Capa_4"
   transform="translate(-0.10000038,0.5)">
</g>
<g
   id="categorias"
   transform="translate(-0.10000038,0.5)">
	<g
   id="g12">
		<circle
   cx="20.1"
   cy="19.5"
   r="20"
   id="circle14"
   sodipodi:cx="20.1"
   sodipodi:cy="19.5"
   sodipodi:rx="20"
   sodipodi:ry="20"
   style="fill:#ab47bc"
   d="m 40.1,19.5 c 0,11.045695 -8.954305,20 -20,20 -11.0456946,0 -19.99999962,-8.954305 -19.99999962,-20 0,-11.045695 8.95430502,-20 19.99999962,-20 11.045695,0 20,8.954305 20,20 z" />
		<g
   id="g16">
			<path
   d="m 21.6,17.1 c -1.7,0 -3.1,1.4 -3.1,3.1 0,1.7 1.4,3.1 3.1,3.1 1.7,0 3.1,-1.4 3.1,-3.1 0,-1.7 -1.4,-3.1 -3.1,-3.1 z"
   id="path18"
   inkscape:connector-curvature="0"
   style="fill:#fafafa" />
			<path
   d="M 27.4,14 H 26.2 V 12.8 H 25 V 14 h -6.1 c 0,-0.6 -0.6,-1.2 -1.2,-1.2 H 15.2 C 14.5,12.8 14,13.4 14,14 h -1.2 c -0.7,0 -1.2,0.6 -1.2,1.2 V 25 c 0,0.7 0.6,1.2 1.2,1.2 h 14.8 c 0.7,0 1.2,-0.6 1.2,-1.2 V 15.2 C 28.7,14.5 28.1,14 27.4,14 z m -13,4.1 c -0.5,0 -0.9,-0.4 -0.9,-0.9 0,-0.5 0.4,-0.9 0.9,-0.9 0.5,0 0.9,0.4 0.9,0.9 0,0.5 -0.4,0.9 -0.9,0.9 z m 7.2,6.8 c -2.6,0 -4.7,-2.1 -4.7,-4.7 0,-2.6 2.1,-4.7 4.7,-4.7 2.6,0 4.7,2.1 4.7,4.7 0,2.6 -2.1,4.7 -4.7,4.7 z"
   id="path20"
   inkscape:connector-curvature="0"
   style="fill:#fafafa" />
		</g>
	</g>
</g>
<g
   id="BUSCADOR_EXPANDIDO"
   transform="translate(-0.10000038,0.5)">
</g>
<g
   id="CAPA-OSCURECIDA"
   transform="translate(-0.10000038,0.5)">
</g>
<g
   id="MENU_LATERAL_IZDO"
   transform="translate(-0.10000038,0.5)">
</g>
<g
   id="VENTANA-EMERGENTE-REGISTRO"
   transform="translate(-0.10000038,0.5)">
</g>
<g
   id="MENU_ANDROID_INFERIOR"
   transform="translate(-0.10000038,0.5)">
	<g
   id="ui_x5F_button_x5F_raised_2">
	</g>
	<g
   id="ui_x5F_dialog_x5F_light_2">
	</g>
	<g
   id="ic_x5F_radioButtonOn_x5F_color_x0D_">
	</g>
	<g
   id="ui_x5F_searchField_x5F_inset_x5F_light">
	</g>
</g>
</svg>