<?xml version="1.0" encoding="utf-8"?>
<!-- Generator: Adobe Illustrator 18.0.0, SVG Export Plug-In . SVG Version: 6.00 Build 0)  -->
<!DOCTYPE svg PUBLIC "-//W3C//DTD SVG 1.1//EN" "http://www.w3.org/Graphics/SVG/1.1/DTD/svg11.dtd">
<svg version="1.1" xmlns="http://www.w3.org/2000/svg" xmlns:xlink="http://www.w3.org/1999/xlink" x="0px" y="0px"
	 viewBox="0 0 41 41" enable-background="new 0 0 41 41" xml:space="preserve">
<g id="Capa_1">
</g>
<g id="MAPA">
	<g id="ui_x5F_buttonCircle_big_x5F_blue">
	</g>
</g>
<g id="BOTONES">
</g>
<g id="SUPERIOR_BAR">
</g>
<g id="BUSCADOR-LUPA_1_">
</g>
<g id="Capa_4">
</g>
<g id="categorias">
	<g>
		<circle fill="#757575" cx="20.5" cy="20.5" r="20"/>
		<path fill-rule="evenodd" clip-rule="evenodd" fill="#FAFAFA" d="M18.1,26.9c0.6,0,1.2,0.5,1.2,1.1c0,0.6-0.5,1.1-1.2,1.1
			s-1.2-0.5-1.2-1.1C16.9,27.4,17.4,26.9,18.1,26.9L18.1,26.9z M12.7,12.3l0.5-0.3c0,0,1.5,1.1,2,1.8c0.3,0.4,0.7,2.3,1,3.7l1.5,0.2
			l10.3,1.7c0.5,0.1,0.8,0.2,0.8,0.7l-0.3,3.3l-0.1,0.8l-0.1,0.8v0l0,0l0,0l0,0.5l0-0.5l0,0.5c-0.1,0.7-0.6,1.4-1.3,1.3
			c-3.2-0.5-6.5-0.5-9.6,0.1c-0.3,0.1-0.6-0.1-0.6-0.4l-0.2-0.8l0,0L16,23.8l0,0l0-0.2h0l0.3,1.2l-2-9l0,0c-0.2-0.8-0.3-1.2-0.5-1.5
			c-0.2-0.3-0.6-0.6-1.2-1.1c-0.2-0.2-0.3-0.5-0.1-0.7C12.5,12.4,12.6,12.3,12.7,12.3L12.7,12.3z M17.7,24.6l0.1,1
			c3-0.5,6.1-0.5,9.2,0c0,0,0,0,0.1,0l0,0l0.1-1c0,0-0.1,0-0.1,0C23.8,24.1,20.7,24.1,17.7,24.6L17.7,24.6z M26.3,26.9
			c0.6,0,1.2,0.5,1.2,1.1c0,0.6-0.5,1.1-1.2,1.1c-0.6,0-1.2-0.5-1.2-1.1C25.2,27.4,25.7,26.9,26.3,26.9L26.3,26.9z M28.2,24.9
			L28.2,24.9L28.2,24.9L28.2,24.9z"/>
	</g>
</g>
<g id="BUSCADOR_EXPANDIDO">
</g>
<g id="CAPA-OSCURECIDA">
</g>
<g id="MENU_LATERAL_IZDO">
</g>
<g id="VENTANA-EMERGENTE-REGISTRO">
</g>
<g id="MENU_ANDROID_INFERIOR">
	<g id="ui_x5F_button_x5F_raised_2">
	</g>
	<g id="ui_x5F_dialog_x5F_light_2">
	</g>
	<g id="ic_x5F_radioButtonOn_x5F_color_x0D_">
	</g>
	<g id="ui_x5F_searchField_x5F_inset_x5F_light">
	</g>
</g>
</svg>
