<?xml version="1.0" encoding="utf-8"?>
<!-- Generator: Adobe Illustrator 18.0.0, SVG Export Plug-In . SVG Version: 6.00 Build 0)  -->
<!DOCTYPE svg PUBLIC "-//W3C//DTD SVG 1.1//EN" "http://www.w3.org/Graphics/SVG/1.1/DTD/svg11.dtd">
<svg version="1.1" xmlns="http://www.w3.org/2000/svg" xmlns:xlink="http://www.w3.org/1999/xlink" x="0px" y="0px"
	 viewBox="0 0 41 41" enable-background="new 0 0 41 41" xml:space="preserve">
<g id="Capa_1">
</g>
<g id="MAPA">
	<g id="ui_x5F_buttonCircle_big_x5F_blue">
	</g>
</g>
<g id="BOTONES">
</g>
<g id="SUPERIOR_BAR">
</g>
<g id="BUSCADOR-LUPA_1_">
</g>
<g id="Capa_4">
</g>
<g id="categorias">
	<g>
		<circle fill="#F57C00" cx="20.5" cy="20.5" r="20"/>
		<path fill-rule="evenodd" clip-rule="evenodd" fill="#FAFAFA" d="M27.7,18.7c1.4-1.4,1.7-3.2,0.8-4.2c-0.9-0.9-2.8-0.6-4.2,0.8
			c-1.1,1.1-1.6,2.6-1.2,3.6l0,0L21,21l-2.1-2.1L18.8,19c0.4-1,0.8-1.6-0.2-2.6l0,0l-3.2-3.2l-0.5,0.5l2.9,3.3l-0.7,0.7l-3.2-3.1
			L13.4,15l3.1,3.2l-0.6,0.6L12.5,16L12,16.5l3.2,3.2l0,0c1.1,1,1.7,0.6,2.6,0.2l0,0l2.1,2.1l-4.7,4.7c0,1.2,1,1,1,1l4.7-4.7
			l4.7,4.7c1.2,0,1-1,1-1L22,22.1l2.1-2.1l-0.1-0.1C25.1,20.3,26.6,19.9,27.7,18.7z"/>
	</g>
</g>
<g id="BUSCADOR_EXPANDIDO">
</g>
<g id="CAPA-OSCURECIDA">
</g>
<g id="MENU_LATERAL_IZDO">
</g>
<g id="VENTANA-EMERGENTE-REGISTRO">
</g>
<g id="MENU_ANDROID_INFERIOR">
	<g id="ui_x5F_button_x5F_raised_2">
	</g>
	<g id="ui_x5F_dialog_x5F_light_2">
	</g>
	<g id="ic_x5F_radioButtonOn_x5F_color_x0D_">
	</g>
	<g id="ui_x5F_searchField_x5F_inset_x5F_light">
	</g>
</g>
</svg>
