<?xml version="1.0" encoding="utf-8"?>
<!-- Generator: Adobe Illustrator 18.0.0, SVG Export Plug-In . SVG Version: 6.00 Build 0)  -->
<!DOCTYPE svg PUBLIC "-//W3C//DTD SVG 1.1//EN" "http://www.w3.org/Graphics/SVG/1.1/DTD/svg11.dtd">
<svg version="1.1" xmlns="http://www.w3.org/2000/svg" xmlns:xlink="http://www.w3.org/1999/xlink" x="0px" y="0px"
	 viewBox="0 0 41 41" enable-background="new 0 0 41 41" xml:space="preserve">
<g id="Capa_1">
</g>
<g id="MAPA">
	<g id="ui_x5F_buttonCircle_big_x5F_blue">
	</g>
</g>
<g id="BOTONES">
</g>
<g id="SUPERIOR_BAR">
</g>
<g id="BUSCADOR-LUPA_1_">
</g>
<g id="Capa_4">
</g>
<g id="categorias">
	<circle fill="#757575" cx="20.5" cy="20.5" r="20"/>
</g>
<g id="BUSCADOR_EXPANDIDO">
</g>
<g id="CAPA-OSCURECIDA">
</g>
<g id="MENU_LATERAL_IZDO">
</g>
<g id="VENTANA-EMERGENTE-REGISTRO">
</g>
<g id="MENU_ANDROID_INFERIOR">
	<g id="ui_x5F_button_x5F_raised_2">
	</g>
	<g id="ui_x5F_dialog_x5F_light_2">
	</g>
	<g id="ic_x5F_radioButtonOn_x5F_color_x0D_">
	</g>
	<g id="ui_x5F_searchField_x5F_inset_x5F_light">
	</g>
	<g>
		<g>
			<path fill-rule="evenodd" clip-rule="evenodd" fill="#FAFAFA" d="M22.6,14.3l0-1.8l-3.1,0l0,1.8L22.6,14.3z M19.5,19.8l3.1,0
				l0-1.2l-3.1,0L19.5,19.8z M19.5,24.1l0,4.9l3.1,0l0-4.9L19.5,24.1z M15.2,18l10.6,0l1.7-1.5l-1.7-1.5l-10.6,0l1.5,1.5L15.2,18z
				 M26.2,20.4l-11,0L13.4,22l1.8,1.5l11,0L24.7,22L26.2,20.4z"/>
		</g>
	</g>
</g>
</svg>
