<?xml version="1.0" encoding="utf-8"?>
<!-- Generator: Adobe Illustrator 18.0.0, SVG Export Plug-In . SVG Version: 6.00 Build 0)  -->
<!DOCTYPE svg PUBLIC "-//W3C//DTD SVG 1.1//EN" "http://www.w3.org/Graphics/SVG/1.1/DTD/svg11.dtd">
<svg version="1.1" xmlns="http://www.w3.org/2000/svg" xmlns:xlink="http://www.w3.org/1999/xlink" x="0px" y="0px"
	 viewBox="0 0 41 41" enable-background="new 0 0 41 41" xml:space="preserve">
<g id="Capa_1">
</g>
<g id="MAPA">
	<g id="ui_x5F_buttonCircle_big_x5F_blue">
	</g>
</g>
<g id="BOTONES">
</g>
<g id="SUPERIOR_BAR">
</g>
<g id="BUSCADOR-LUPA_1_">
</g>
<g id="Capa_4">
</g>
<g id="categorias">
	<g>
		<circle fill="#E53935" cx="20.5" cy="20.5" r="20"/>
		<g>
			<path fill="#FAFAFA" d="M20.8,12.7l-9.8,8.6c0,0,0.6,1.1,1.9,0l0.7-0.6v7.2c0,0,0,0.4,0.4,0.4c0.5,0,4.8,0,4.8,0l0-4
				c0,0-0.1-0.7,0.6-0.7h2c0.8,0,0.7,0.7,0.7,0.7l0,4c0,0,4.1,0,4.7,0c0.5,0,0.5-0.5,0.5-0.5v-7.2l0.7,0.7c1.5,1.1,2.1,0,2.1,0
				L20.8,12.7z M20.6,22.2c-1.1,0-2.1-0.9-2.1-2.1c0-1.1,0.9-2.1,2.1-2.1c1.1,0,2.1,0.9,2.1,2.1C22.7,21.3,21.8,22.2,20.6,22.2z"/>
			<polygon fill="#FAFAFA" points="28,18.5 28,14.6 26.1,14.6 26.1,16.9 			"/>
			<circle fill="#FAFAFA" cx="20.6" cy="20.1" r="1"/>
		</g>
	</g>
</g>
<g id="BUSCADOR_EXPANDIDO">
</g>
<g id="CAPA-OSCURECIDA">
</g>
<g id="MENU_LATERAL_IZDO">
</g>
<g id="VENTANA-EMERGENTE-REGISTRO">
</g>
<g id="MENU_ANDROID_INFERIOR">
	<g id="ui_x5F_button_x5F_raised_2">
	</g>
	<g id="ui_x5F_dialog_x5F_light_2">
	</g>
	<g id="ic_x5F_radioButtonOn_x5F_color_x0D_">
	</g>
	<g id="ui_x5F_searchField_x5F_inset_x5F_light">
	</g>
</g>
</svg>
