<?xml version="1.0" encoding="UTF-8" standalone="no"?>
<!-- Generator: Adobe Illustrator 18.0.0, SVG Export Plug-In . SVG Version: 6.00 Build 0)  -->

<svg
   xmlns:dc="http://purl.org/dc/elements/1.1/"
   xmlns:cc="http://creativecommons.org/ns#"
   xmlns:rdf="http://www.w3.org/1999/02/22-rdf-syntax-ns#"
   xmlns:svg="http://www.w3.org/2000/svg"
   xmlns="http://www.w3.org/2000/svg"
   xmlns:sodipodi="http://sodipodi.sourceforge.net/DTD/sodipodi-0.dtd"
   xmlns:inkscape="http://www.inkscape.org/namespaces/inkscape"
   version="1.1"
   x="0px"
   y="0px"
   viewBox="0 0 40 40"
   enable-background="new 0 0 42 42"
   xml:space="preserve"
   id="svg2"
   inkscape:version="0.48.3.1 r9886"
   width="100%"
   height="100%"
   sodipodi:docname="varias-marcas-icon-61.svg"><metadata
   id="metadata41"><rdf:RDF><cc:Work
       rdf:about=""><dc:format>image/svg+xml</dc:format><dc:type
         rdf:resource="http://purl.org/dc/dcmitype/StillImage" /><dc:title></dc:title></cc:Work></rdf:RDF></metadata><defs
   id="defs39">
	

		
		
		
	</defs><sodipodi:namedview
   pagecolor="#ffffff"
   bordercolor="#666666"
   borderopacity="1"
   objecttolerance="10"
   gridtolerance="10"
   guidetolerance="10"
   inkscape:pageopacity="0"
   inkscape:pageshadow="2"
   inkscape:window-width="1024"
   inkscape:window-height="709"
   id="namedview37"
   showgrid="false"
   fit-margin-top="0"
   fit-margin-left="0"
   fit-margin-right="0"
   fit-margin-bottom="0"
   inkscape:zoom="11.238095"
   inkscape:cx="24.058905"
   inkscape:cy="14.318291"
   inkscape:window-x="0"
   inkscape:window-y="27"
   inkscape:window-maximized="1"
   inkscape:current-layer="svg2" />
<g
   id="Capa_1"
   transform="translate(-1,-1)">
</g>
<g
   id="MAPA"
   transform="translate(-1,-1)">
	<g
   id="ui_x5F_buttonCircle_big_x5F_blue">
	</g>
</g>
<g
   id="BOTONES"
   transform="translate(-1,-1)">
</g>
<g
   id="SUPERIOR_BAR"
   transform="translate(-1,-1)">
</g>
<g
   id="BUSCADOR-LUPA_1_"
   transform="translate(-1,-1)">
</g>
<g
   id="Capa_4"
   transform="translate(-1,-1)">
</g>
<circle
   stroke-miterlimit="10"
   cx="21"
   cy="21"
   r="20"
   id="circle14"
   sodipodi:cx="21"
   sodipodi:cy="21"
   sodipodi:rx="20"
   sodipodi:ry="20"
   style="fill:#00acc1;stroke:none"
   transform="translate(-1,-1)" /><path
   clip-rule="evenodd"
   stroke-miterlimit="10"
   d="m 29.5,31.5 h -19 c -1.1,0 -2,-0.9 -2,-2 v -19 c 0,-1.1 0.9,-2 2,-2 h 19 c 1.1,0 2,0.9 2,2 v 19 c 0,1.1 -0.9,2 -2,2 z"
   id="path16"
   inkscape:connector-curvature="0"
   style="fill:none;stroke:#ffffff;stroke-miterlimit:10" /><g
   id="g18"
   transform="translate(-1,-1)">
			<circle
   clip-rule="evenodd"
   cx="16.1"
   cy="16"
   r="4"
   id="circle20"
   sodipodi:cx="16.1"
   sodipodi:cy="16"
   sodipodi:rx="4"
   sodipodi:ry="4"
   style="fill:#ffffff;fill-rule:evenodd"
   d="m 20.1,16 c 0,2.209139 -1.790861,4 -4,4 -2.209139,0 -4,-1.790861 -4,-4 0,-2.209139 1.790861,-4 4,-4 2.209139,0 4,1.790861 4,4 z" />
			<circle
   clip-rule="evenodd"
   cx="26.1"
   cy="16"
   r="4"
   id="circle22"
   sodipodi:cx="26.1"
   sodipodi:cy="16"
   sodipodi:rx="4"
   sodipodi:ry="4"
   style="fill:#ffffff;fill-rule:evenodd"
   d="m 30.1,16 c 0,2.209139 -1.790861,4 -4,4 -2.209139,0 -4,-1.790861 -4,-4 0,-2.209139 1.790861,-4 4,-4 2.209139,0 4,1.790861 4,4 z" />
			<circle
   clip-rule="evenodd"
   cx="16.1"
   cy="26"
   r="4"
   id="circle24"
   sodipodi:cx="16.1"
   sodipodi:cy="26"
   sodipodi:rx="4"
   sodipodi:ry="4"
   style="fill:#ffffff;fill-rule:evenodd"
   d="m 20.1,26 c 0,2.209139 -1.790861,4 -4,4 -2.209139,0 -4,-1.790861 -4,-4 0,-2.209139 1.790861,-4 4,-4 2.209139,0 4,1.790861 4,4 z" />
			<circle
   clip-rule="evenodd"
   cx="26.1"
   cy="26"
   r="4"
   id="circle26"
   sodipodi:cx="26.1"
   sodipodi:cy="26"
   sodipodi:rx="4"
   sodipodi:ry="4"
   style="fill:#ffffff;fill-rule:evenodd"
   d="m 30.1,26 c 0,2.209139 -1.790861,4 -4,4 -2.209139,0 -4,-1.790861 -4,-4 0,-2.209139 1.790861,-4 4,-4 2.209139,0 4,1.790861 4,4 z" />
		</g>
<g
   id="BUSCADOR_EXPANDIDO"
   transform="translate(-1,-1)">
</g>
<g
   id="CAPA-OSCURECIDA"
   transform="translate(-1,-1)">
</g>
<g
   id="MENU_LATERAL_IZDO"
   transform="translate(-1,-1)">
</g>
<g
   id="VENTANA-EMERGENTE-REGISTRO"
   transform="translate(-1,-1)">
</g>
<g
   id="MENU_ANDROID_INFERIOR"
   transform="translate(-1,-1)">
	<g
   id="ui_x5F_button_x5F_raised_2">
	</g>
	<g
   id="ui_x5F_dialog_x5F_light_2">
	</g>
	<g
   id="ic_x5F_radioButtonOn_x5F_color_x0D_">
	</g>
	<g
   id="ui_x5F_searchField_x5F_inset_x5F_light">
	</g>
</g>
</svg>