<?xml version="1.0" encoding="utf-8"?>
<!-- Generator: Adobe Illustrator 18.0.0, SVG Export Plug-In . SVG Version: 6.00 Build 0)  -->
<!DOCTYPE svg PUBLIC "-//W3C//DTD SVG 1.1//EN" "http://www.w3.org/Graphics/SVG/1.1/DTD/svg11.dtd">
<svg version="1.1" xmlns="http://www.w3.org/2000/svg" xmlns:xlink="http://www.w3.org/1999/xlink" x="0px" y="0px"
	 viewBox="0 0 43 43" enable-background="new 0 0 43 43" xml:space="preserve">
<g id="Capa_1">
</g>
<g id="MAPA">
	<g id="ui_x5F_buttonCircle_big_x5F_blue">
	</g>
</g>
<g id="BOTONES">
</g>
<g id="SUPERIOR_BAR">
</g>
<g id="BUSCADOR-LUPA_1_">
</g>
<g id="Capa_4">
</g>
<g id="categorias">
	<g>
		<circle fill="#AB47BC" stroke="#FFFFFF" stroke-width="2" stroke-miterlimit="10" cx="21.5" cy="21.5" r="20"/>
		<g>
			<path fill="#FAFAFA" d="M23,19.1c-1.7,0-3.1,1.4-3.1,3.1c0,1.7,1.4,3.1,3.1,3.1s3.1-1.4,3.1-3.1C26.1,20.5,24.7,19.1,23,19.1z"/>
			<path fill="#FAFAFA" d="M28.9,16h-1.2v-1.2h-1.2V16h-6.1c0-0.6-0.6-1.2-1.2-1.2h-2.5c-0.7,0-1.2,0.6-1.2,1.2h-1.2
				c-0.7,0-1.2,0.6-1.2,1.2V27c0,0.7,0.6,1.2,1.2,1.2h14.8c0.7,0,1.2-0.6,1.2-1.2v-9.8C30.1,16.5,29.6,16,28.9,16z M15.8,20.1
				c-0.5,0-0.9-0.4-0.9-0.9c0-0.5,0.4-0.9,0.9-0.9c0.5,0,0.9,0.4,0.9,0.9C16.7,19.7,16.3,20.1,15.8,20.1z M23,26.9
				c-2.6,0-4.7-2.1-4.7-4.7s2.1-4.7,4.7-4.7s4.7,2.1,4.7,4.7S25.6,26.9,23,26.9z"/>
		</g>
	</g>
</g>
<g id="BUSCADOR_EXPANDIDO">
</g>
<g id="CAPA-OSCURECIDA">
</g>
<g id="MENU_LATERAL_IZDO">
</g>
<g id="VENTANA-EMERGENTE-REGISTRO">
</g>
<g id="MENU_ANDROID_INFERIOR">
	<g id="ui_x5F_button_x5F_raised_2">
	</g>
	<g id="ui_x5F_dialog_x5F_light_2">
	</g>
	<g id="ic_x5F_radioButtonOn_x5F_color_x0D_">
	</g>
	<g id="ui_x5F_searchField_x5F_inset_x5F_light">
	</g>
</g>
</svg>
