<?xml version="1.0" encoding="utf-8"?>
<!-- Generator: Adobe Illustrator 18.0.0, SVG Export Plug-In . SVG Version: 6.00 Build 0)  -->
<!DOCTYPE svg PUBLIC "-//W3C//DTD SVG 1.1//EN" "http://www.w3.org/Graphics/SVG/1.1/DTD/svg11.dtd">
<svg version="1.1" xmlns="http://www.w3.org/2000/svg" xmlns:xlink="http://www.w3.org/1999/xlink" x="0px" y="0px"
	 viewBox="0 0 43 43" enable-background="new 0 0 43 43" xml:space="preserve">
<g id="Capa_1">
</g>
<g id="MAPA">
	<g id="ui_x5F_buttonCircle_big_x5F_blue">
	</g>
</g>
<g id="BOTONES">
</g>
<g id="SUPERIOR_BAR">
</g>
<g id="BUSCADOR-LUPA_1_">
</g>
<g id="Capa_4">
</g>
<g id="categorias">
	<g>
		<circle fill="#8BC34A" stroke="#FFFFFF" stroke-width="2" stroke-miterlimit="10" cx="21.5" cy="21.5" r="20"/>
		<path id="_x3C_Compound_Path_x3E__29_" fill="#FAFAFA" d="M27.3,16.6h-1.5v-0.9c0-1.3-1-2.3-2.3-2.3h-4.1c-1.3,0-2.3,1-2.3,2.3
			v0.9h-1.5c-1.3,0-2.3,0.9-2.3,2.2v8.6c0,1.3,1,2.3,2.3,2.3h11.6c1.3,0,2.3-1,2.3-2.3v-8.6C29.6,17.5,28.6,16.6,27.3,16.6z
			 M18.4,15.7c0-0.6,0.5-1.1,1.1-1.1h4.1c0.6,0,1.1,0.5,1.1,1.1v0.9h-6.2V15.7z M25.2,24.7h-2.5v2.5h-2.5v-2.5h-2.5v-3.1h2.5v-2.5
			h2.5v2.5h2.5V24.7z"/>
	</g>
</g>
<g id="BUSCADOR_EXPANDIDO">
</g>
<g id="CAPA-OSCURECIDA">
</g>
<g id="MENU_LATERAL_IZDO">
</g>
<g id="VENTANA-EMERGENTE-REGISTRO">
</g>
<g id="MENU_ANDROID_INFERIOR">
	<g id="ui_x5F_button_x5F_raised_2">
	</g>
	<g id="ui_x5F_dialog_x5F_light_2">
	</g>
	<g id="ic_x5F_radioButtonOn_x5F_color_x0D_">
	</g>
	<g id="ui_x5F_searchField_x5F_inset_x5F_light">
	</g>
</g>
</svg>
