<?xml version="1.0" encoding="utf-8"?>
<!-- Generator: Adobe Illustrator 18.0.0, SVG Export Plug-In . SVG Version: 6.00 Build 0)  -->
<!DOCTYPE svg PUBLIC "-//W3C//DTD SVG 1.1//EN" "http://www.w3.org/Graphics/SVG/1.1/DTD/svg11.dtd">
<svg version="1.1" xmlns="http://www.w3.org/2000/svg" xmlns:xlink="http://www.w3.org/1999/xlink" x="0px" y="0px"
	 viewBox="0 0 43 43" enable-background="new 0 0 43 43" xml:space="preserve">
<g id="Capa_1">
</g>
<g id="MAPA">
	<g id="ui_x5F_buttonCircle_big_x5F_blue">
	</g>
</g>
<g id="BOTONES">
</g>
<g id="SUPERIOR_BAR">
</g>
<g id="BUSCADOR-LUPA_1_">
</g>
<g id="Capa_4">
</g>
<g id="categorias">
	<g>
		<circle fill="#F06292" stroke="#FFFFFF" stroke-width="2" stroke-miterlimit="10" cx="21.5" cy="21.5" r="20"/>
		<path fill-rule="evenodd" clip-rule="evenodd" fill="#FAFAFA" d="M19.1,27.9c0.6,0,1.2,0.5,1.2,1.1c0,0.6-0.5,1.1-1.2,1.1
			s-1.2-0.5-1.2-1.1C17.9,28.4,18.4,27.9,19.1,27.9L19.1,27.9z M13.7,13.3l0.5-0.3c0,0,1.5,1.1,2,1.8c0.3,0.4,0.7,2.3,1,3.7l1.5,0.2
			l10.3,1.7c0.5,0.1,0.8,0.2,0.8,0.7l-0.3,3.3l-0.1,0.8l-0.1,0.8v0l0,0l0,0l0,0.5l0-0.5l0,0.5c-0.1,0.7-0.6,1.4-1.3,1.3
			c-3.2-0.5-6.5-0.5-9.6,0.1c-0.3,0.1-0.6-0.1-0.6-0.4l-0.2-0.8l0,0L17,24.8l0,0l0-0.2h0l0.3,1.2l-2-9l0,0c-0.2-0.8-0.3-1.2-0.5-1.5
			c-0.2-0.3-0.6-0.6-1.2-1.1c-0.2-0.2-0.3-0.5-0.1-0.7C13.5,13.4,13.6,13.3,13.7,13.3L13.7,13.3z M18.7,25.6l0.1,1
			c3-0.5,6.1-0.5,9.2,0c0,0,0,0,0.1,0l0,0l0.1-1c0,0-0.1,0-0.1,0C24.8,25.1,21.7,25.1,18.7,25.6L18.7,25.6z M27.3,27.9
			c0.6,0,1.2,0.5,1.2,1.1c0,0.6-0.5,1.1-1.2,1.1c-0.6,0-1.2-0.5-1.2-1.1C26.2,28.4,26.7,27.9,27.3,27.9L27.3,27.9z M29.2,25.9
			L29.2,25.9L29.2,25.9L29.2,25.9z"/>
	</g>
</g>
<g id="BUSCADOR_EXPANDIDO">
</g>
<g id="CAPA-OSCURECIDA">
</g>
<g id="MENU_LATERAL_IZDO">
</g>
<g id="VENTANA-EMERGENTE-REGISTRO">
</g>
<g id="MENU_ANDROID_INFERIOR">
	<g id="ui_x5F_button_x5F_raised_2">
	</g>
	<g id="ui_x5F_dialog_x5F_light_2">
	</g>
	<g id="ic_x5F_radioButtonOn_x5F_color_x0D_">
	</g>
	<g id="ui_x5F_searchField_x5F_inset_x5F_light">
	</g>
</g>
</svg>
