<?xml version="1.0" encoding="utf-8"?>
<!-- Generator: Adobe Illustrator 18.0.0, SVG Export Plug-In . SVG Version: 6.00 Build 0)  -->
<!DOCTYPE svg PUBLIC "-//W3C//DTD SVG 1.1//EN" "http://www.w3.org/Graphics/SVG/1.1/DTD/svg11.dtd">
<svg version="1.1" xmlns="http://www.w3.org/2000/svg" xmlns:xlink="http://www.w3.org/1999/xlink" x="0px" y="0px"
	 viewBox="0 0 43 43" enable-background="new 0 0 43 43" xml:space="preserve">
<g id="Capa_1">
</g>
<g id="MAPA">
	<g id="ui_x5F_buttonCircle_big_x5F_blue">
	</g>
</g>
<g id="BOTONES">
</g>
<g id="SUPERIOR_BAR">
</g>
<g id="BUSCADOR-LUPA_1_">
</g>
<g id="Capa_4">
</g>
<g id="categorias">
	<circle fill="#8D6E63" stroke="#FFFFFF" stroke-width="2" stroke-miterlimit="10" cx="21.5" cy="21.5" r="20"/>
</g>
<g id="BUSCADOR_EXPANDIDO">
</g>
<g id="CAPA-OSCURECIDA">
</g>
<g id="MENU_LATERAL_IZDO">
</g>
<g id="VENTANA-EMERGENTE-REGISTRO">
</g>
<g id="MENU_ANDROID_INFERIOR">
	<g id="ui_x5F_button_x5F_raised_2">
	</g>
	<g id="ui_x5F_dialog_x5F_light_2">
	</g>
	<g id="ic_x5F_radioButtonOn_x5F_color_x0D_">
	</g>
	<g id="ui_x5F_searchField_x5F_inset_x5F_light">
	</g>
	<g>
		<g>
			<path fill-rule="evenodd" clip-rule="evenodd" fill="#FAFAFA" d="M23.6,15.3l0-1.8l-3.1,0l0,1.8L23.6,15.3z M20.5,20.8l3.1,0
				l0-1.2l-3.1,0L20.5,20.8z M20.5,25.1l0,4.9l3.1,0l0-4.9L20.5,25.1z M16.2,19l10.6,0l1.7-1.5l-1.7-1.5l-10.6,0l1.5,1.5L16.2,19z
				 M27.2,21.4l-11,0L14.4,23l1.8,1.5l11,0L25.7,23L27.2,21.4z"/>
		</g>
	</g>
</g>
</svg>
