<?xml version="1.0" encoding="utf-8"?>
<!-- Generator: Adobe Illustrator 18.0.0, SVG Export Plug-In . SVG Version: 6.00 Build 0)  -->
<!DOCTYPE svg PUBLIC "-//W3C//DTD SVG 1.1//EN" "http://www.w3.org/Graphics/SVG/1.1/DTD/svg11.dtd">
<svg version="1.1" xmlns="http://www.w3.org/2000/svg" xmlns:xlink="http://www.w3.org/1999/xlink" x="0px" y="0px"
	 viewBox="0 0 61 51" enable-background="new 0 0 61 51" xml:space="preserve">
<g id="Capa_1">
</g>
<g id="MAPA">
	<g id="ui_x5F_buttonCircle_big_x5F_blue">
	</g>
</g>
<g id="BOTONES">
</g>
<g id="SUPERIOR_BAR">
</g>
<g id="BUSCADOR-LUPA_1_">
</g>
<g id="Capa_4">
</g>
<g id="categorias">
</g>
<g id="BUSCADOR_EXPANDIDO">
</g>
<g id="CAPA-OSCURECIDA">
</g>
<g id="MENU_LATERAL_IZDO">
</g>
<g id="VENTANA-EMERGENTE-REGISTRO">
</g>
<g id="MENU_ANDROID_INFERIOR">
	<g id="ui_x5F_button_x5F_raised_2">
	</g>
	<g id="ui_x5F_dialog_x5F_light_2">
	</g>
	<g id="ic_x5F_radioButtonOn_x5F_color_x0D_">
	</g>
	<g>
		<g id="_x3C_Group_x3E__15_">
			<path fill="none" stroke="#00BCD4" stroke-miterlimit="10" d="M60.3,48.7L31.2,0.9c-0.3-0.5-1-0.5-1.4,0L0.7,48.7
				c-0.2,0.3-0.2,0.8-0.1,1.2c0.1,0.4,0.5,0.6,0.8,0.6h58.3c0.3,0,0.6-0.2,0.8-0.6C60.6,49.5,60.5,49,60.3,48.7z"/>
		</g>
		<g>
			<g>
				<g>
					<path fill="#9E9E9E" d="M30.5,26.7c-6.1,0-11.1,5-11.1,11.2c0,1.9,0.5,3.7,1.4,5.3v-3c0-0.5,0.2-1.1,0.5-1.5c0-0.3,0-0.6,0-0.9
						c0-5.1,4.2-9.3,9.3-9.3c5.1,0,9.3,4.2,9.3,9.3c0,0.3,0,0.7-0.1,1c0.3,0.4,0.5,0.9,0.5,1.4v3.1c0.9-1.7,1.4-3.6,1.4-5.5
						C41.6,31.7,36.6,26.7,30.5,26.7z"/>
				</g>
				<g>
					<path fill="#9E9E9E" d="M21.4,39.7c0,0.2-0.1,0.3-0.1,0.5v2.8v1.3c0,1.3,1.5,2.3,3.4,2.3h1.4v-8.8h-1.4
						C23.1,37.9,21.7,38.7,21.4,39.7z"/>
				</g>
				<g>
					<path fill="#9E9E9E" d="M39.6,44.4V43v-2.8c0-0.1,0-0.2,0-0.3c-0.2-1.1-1.7-2-3.4-2h-1.4v8.8h1.4
						C38.1,46.7,39.6,45.7,39.6,44.4z"/>
				</g>
			</g>
			<g>
				<path fill="#9E9E9E" d="M27.6,45.3l-0.4-0.3c1.9-3,0-5.5,0-5.5l0.4-0.3C27.6,39.3,29.8,42.1,27.6,45.3z"/>
			</g>
			<g>
				<path fill="#9E9E9E" d="M28.5,46.9l-0.4-0.3c3-4.6,0-8.5,0-8.6l0.4-0.3C28.5,37.8,31.7,41.9,28.5,46.9z"/>
			</g>
			<g>
				<g>
					<path fill="#9E9E9E" d="M33.5,45.3c-2.1-3.3,0-6,0-6l0.4,0.3c-0.1,0.1-1.9,2.5,0,5.5L33.5,45.3z"/>
				</g>
				<g>
					<path fill="#9E9E9E" d="M32.6,46.9c-3.2-4.9,0-9.1,0-9.1L33,38c0,0-3,3.9,0,8.6L32.6,46.9z"/>
				</g>
			</g>
		</g>
		<path fill="#9E9E9E" d="M30.5,9.1c-3.3,0-6,2.7-6,6c0,3.3,2.7,6,6,6c3.3,0,6-2.7,6-6C36.5,11.8,33.8,9.1,30.5,9.1z M33.6,16h-2.1
			v2.2h-1.8V16h-2.1v-1.8h2.1V12h1.8v2.1h2.1V16z"/>
	</g>
	<g id="ui_x5F_searchField_x5F_inset_x5F_light">
	</g>
</g>
</svg>
