<?xml version="1.0" encoding="utf-8"?>
<!-- Generator: Adobe Illustrator 18.0.0, SVG Export Plug-In . SVG Version: 6.00 Build 0)  -->
<!DOCTYPE svg PUBLIC "-//W3C//DTD SVG 1.1//EN" "http://www.w3.org/Graphics/SVG/1.1/DTD/svg11.dtd">
<svg version="1.1" xmlns="http://www.w3.org/2000/svg" xmlns:xlink="http://www.w3.org/1999/xlink" x="0px" y="0px"
	 viewBox="0 0 37 37" enable-background="new 0 0 37 37" xml:space="preserve">
<g id="Capa_1">
</g>
<g id="MAPA">
	<g id="ui_x5F_buttonCircle_big_x5F_blue">
	</g>
</g>
<g id="BOTONES">
</g>
<g id="SUPERIOR_BAR">
</g>
<g id="BUSCADOR-LUPA_1_">
</g>
<g id="Capa_4">
</g>
<g id="categorias">
</g>
<g id="BUSCADOR_EXPANDIDO">
</g>
<g id="CAPA-OSCURECIDA">
</g>
<g id="MENU_LATERAL_IZDO">
</g>
<g id="VENTANA-EMERGENTE-REGISTRO">
</g>
<g id="MENU_ANDROID_INFERIOR">
	<g id="ui_x5F_button_x5F_raised_2">
	</g>
	<g id="ui_x5F_dialog_x5F_light_2">
	</g>
	<g>
		<circle opacity="0.85" fill="#C8E6C9" cx="18.5" cy="18.5" r="18"/>
		<path fill="#4CAF50" d="M27.4,19.2c-0.1-0.8-0.8-1.5-1.7-1.4l-2.3,0.2l0-0.1l1.8-0.2c0.7-0.1,1.3-0.8,1.2-1.7
			c-0.1-0.8-0.8-1.5-1.5-1.4l-6.1,0.6l-0.9,0c0,0,1.3-0.6,0.3-5.1c-1-4.5-3.5-2.8-3.5-2.8s0,3.9-0.2,4.4c-0.1,0.6-3.1,6.3-3.1,6.3
			c0,0.3-1.8,0.6-1.8,0.9c0,2.7,0,4.9,0,7.7c2-0.5,3,1,7.3,1c1.4,0,3.1-0.2,4.6-0.5l3.8-0.4c0.7-0.1,1.1-0.8,1-1.7
			c-0.1-0.7-0.4-1.2-0.9-1.3l0.5,0c0.8-0.1,1.3-0.8,1.2-1.7c-0.1-0.7-0.6-1.3-1.2-1.4l0.2,0C26.9,20.8,27.5,20.1,27.4,19.2z"/>
	</g>
	<g id="ic_x5F_radioButtonOn_x5F_color_x0D_">
	</g>
	<g id="ui_x5F_searchField_x5F_inset_x5F_light">
	</g>
</g>
</svg>
