<?xml version="1.0" encoding="utf-8"?>
<!-- Generator: Adobe Illustrator 18.0.0, SVG Export Plug-In . SVG Version: 6.00 Build 0)  -->
<!DOCTYPE svg PUBLIC "-//W3C//DTD SVG 1.1//EN" "http://www.w3.org/Graphics/SVG/1.1/DTD/svg11.dtd">
<svg version="1.1" xmlns="http://www.w3.org/2000/svg" xmlns:xlink="http://www.w3.org/1999/xlink" x="0px" y="0px"
	 viewBox="0 0 41 41" enable-background="new 0 0 41 41" xml:space="preserve">
<g id="Capa_1">
</g>
<g id="MAPA">
	<g id="ui_x5F_buttonCircle_big_x5F_blue">
	</g>
</g>
<g id="BOTONES">
</g>
<g id="SUPERIOR_BAR">
</g>
<g id="BUSCADOR-LUPA_1_">
</g>
<g id="Capa_4">
</g>
<g id="categorias">
</g>
<g id="BUSCADOR_EXPANDIDO">
</g>
<g id="CAPA-OSCURECIDA">
</g>
<g id="MENU_LATERAL_IZDO">
</g>
<g id="VENTANA-EMERGENTE-REGISTRO">
</g>
<g id="MENU_ANDROID_INFERIOR">
	<g id="ui_x5F_button_x5F_raised_2">
	</g>
	<g id="ui_x5F_dialog_x5F_light_2">
	</g>
	<g id="ic_x5F_radioButtonOn_x5F_color_x0D_">
	</g>
	<g id="ui_x5F_searchField_x5F_inset_x5F_light">
	</g>
	<g>
		<circle fill="#00BCD4" cx="20.5" cy="20.5" r="20"/>
		<g>
			<path fill="#FFFFFF" d="M24.9,14.7c0,0,0-0.5-0.5-0.3l-3.8,7.2l-3.8-7.2c-0.5-0.2-0.5,0.3-0.5,0.3l4,7.6l-3.3,6.2l0.5,0.3
				l3.1-5.8l3.1,5.8l0.5-0.3l-3.3-6.2L24.9,14.7z"/>
			<path fill="#FFFFFF" d="M29.1,18.3c-2.3-2.8-3.7-3.2-3.7-3.2l-0.1,0.1l-2.6,4.8c1.7,0.1,3.4,2.2,3.4,2.2c1.8,1.9,3.9,2.8,3.9,2.8
				s0.4-0.8,0.6-1c0.1-0.2,1.9-3.6,1.9-3.6C30.9,20.5,29.1,18.3,29.1,18.3z M29.2,18.8c0,0,0.7,0.7,0.8,0.7l-0.5,0.9
				c-0.6-0.4-0.8-0.7-0.8-0.7L29.2,18.8z M30.5,21.1l-0.4,0.8c-0.6-0.2-0.9-0.5-0.9-0.5l0.4-0.8C29.6,20.6,30.2,21.1,30.5,21.1z
				 M27.4,17.1c0,0,0.7,0.5,0.8,0.7l-0.5,0.9c-0.3-0.4-0.8-0.7-0.8-0.7L27.4,17.1z M28.7,19.7l-0.5,0.9c-0.6-0.4-0.8-0.7-0.8-0.7
				l0.5-0.9C27.8,18.9,28.6,19.6,28.7,19.7z M26.8,18.1L26.3,19c-0.3-0.4-0.8-0.7-0.8-0.7l0.5-0.9C26,17.4,26.6,17.8,26.8,18.1z
				 M25.6,15.6c0,0,0.6,0.4,0.9,0.7L26,17.2c-0.4-0.3-0.9-0.7-0.9-0.7L25.6,15.6z M24.6,17.6c0,0,0.7,0.5,0.8,0.7L25,19.3
				c-0.5-0.4-0.9-0.7-0.9-0.7L24.6,17.6z M25.3,21c-0.3-0.4-0.8-0.7-0.8-0.7l0.5-0.9c0,0,0.7,0.5,0.8,0.7L25.3,21z M25.9,20l0.5-0.9
				c0,0,0.6,0.5,0.8,0.7l-0.5,0.9L25.9,20z M27.1,22.6c-0.6-0.4-0.8-0.7-0.8-0.7l0.5-0.9c0,0,0.7,0.7,0.8,0.7L27.1,22.6z M27.7,21.6
				l0.5-0.9c0,0,0.7,0.7,0.8,0.7l-0.5,0.9C28,21.9,27.7,21.6,27.7,21.6z M29.1,23.9c-0.6-0.2-0.9-0.5-0.9-0.5l0.4-0.8
				c0,0,0.6,0.5,0.9,0.5L29.1,23.9z M30.6,23.4c-0.6-0.2-1-0.6-1-0.6l0.4-0.8c0,0,0.7,0.4,1,0.4L30.6,23.4z M31.6,21.3
				c-0.6-0.1-1-0.3-1-0.3l0.4-0.8c0,0,0.5,0.3,1,0.3L31.6,21.3z"/>
			<path fill="#FFFFFF" d="M15.7,15.2l-0.1-0.1c0,0-1.4,0.4-3.7,3.2c0,0-1.8,2.2-3.5,2c0,0,1.8,3.4,1.9,3.6c0.1,0.2,0.6,1,0.6,1
				s2.1-0.9,3.9-2.8c0,0,1.8-2.1,3.4-2.2L15.7,15.2z M16.9,18.6c0,0-0.4,0.3-0.9,0.7l-0.5-0.9c0.2-0.3,0.8-0.7,0.8-0.7L16.9,18.6z
				 M15.4,15.6l0.5,0.9c0,0-0.5,0.3-0.9,0.7l-0.5-0.9C14.7,16,15.4,15.6,15.4,15.6z M15,17.4l0.5,0.9c0,0-0.6,0.4-0.8,0.7l-0.5-0.9
				C14.4,17.8,15,17.4,15,17.4z M13.6,17.1l0.5,0.9c0,0-0.6,0.4-0.8,0.7l-0.5-0.9C13,17.6,13.6,17.1,13.6,17.1z M13.2,18.9l0.5,0.9
				c0,0-0.3,0.3-0.8,0.7l-0.5-0.9C12.4,19.6,13.2,18.9,13.2,18.9z M11.8,18.8l0.5,0.9c0,0-0.3,0.3-0.8,0.7l-0.5-0.9
				C11,19.5,11.8,18.8,11.8,18.8z M11.4,20.6l0.4,0.8c0,0-0.4,0.3-0.9,0.5l-0.4-0.8C10.8,21.1,11.4,20.6,11.4,20.6z M9,20.5
				c0.5,0,1-0.3,1-0.3l0.4,0.8c0,0-0.4,0.3-1,0.3L9,20.5z M10.4,23.4l-0.5-0.9c0.3,0,1-0.4,1-0.4l0.4,0.8
				C11.4,22.9,11,23.2,10.4,23.4z M11.9,23.9L11.5,23c0.3,0,0.9-0.5,0.9-0.5l0.4,0.8C12.9,23.4,12.5,23.7,11.9,23.9z M12.4,22.3
				L12,21.4c0.1,0,0.8-0.7,0.8-0.7l0.5,0.9C13.3,21.6,13,21.9,12.4,22.3z M13.9,22.6l-0.5-0.9c0.1-0.1,0.8-0.7,0.8-0.7l0.5,0.9
				C14.7,21.8,14.4,22.2,13.9,22.6z M14.3,20.8l-0.5-0.9c0.3-0.3,0.8-0.7,0.8-0.7l0.5,0.9L14.3,20.8z M15.7,21l-0.5-0.9
				c0.2-0.3,0.8-0.7,0.8-0.7l0.5,0.9C16.6,20.3,16,20.7,15.7,21z"/>
		</g>
	</g>
</g>
</svg>
