<?xml version="1.0" encoding="utf-8"?>
<!-- Generator: Adobe Illustrator 18.0.0, SVG Export Plug-In . SVG Version: 6.00 Build 0)  -->
<!DOCTYPE svg PUBLIC "-//W3C//DTD SVG 1.1//EN" "http://www.w3.org/Graphics/SVG/1.1/DTD/svg11.dtd">
<svg version="1.1" xmlns="http://www.w3.org/2000/svg" xmlns:xlink="http://www.w3.org/1999/xlink" x="0px" y="0px"
	 viewBox="0 0 61 51" enable-background="new 0 0 61 51" xml:space="preserve">
<g id="Capa_1">
</g>
<g id="MAPA">
	<g id="ui_x5F_buttonCircle_big_x5F_blue">
	</g>
</g>
<g id="BOTONES">
</g>
<g id="SUPERIOR_BAR">
</g>
<g id="BUSCADOR-LUPA_1_">
</g>
<g id="Capa_4">
</g>
<g id="categorias">
</g>
<g id="BUSCADOR_EXPANDIDO">
</g>
<g id="CAPA-OSCURECIDA">
</g>
<g id="MENU_LATERAL_IZDO">
</g>
<g id="VENTANA-EMERGENTE-REGISTRO">
</g>
<g id="MENU_ANDROID_INFERIOR">
	<g id="ui_x5F_button_x5F_raised_2">
	</g>
	<g id="ui_x5F_dialog_x5F_light_2">
	</g>
	<g id="ic_x5F_radioButtonOn_x5F_color_x0D_">
	</g>
	<g>
		<g id="_x3C_Group_x3E__16_">
			<path fill="#00ACC1" d="M60.3,48.7L31.2,0.9c-0.3-0.5-1-0.5-1.4,0L0.7,48.7c-0.2,0.3-0.2,0.8-0.1,1.2c0.1,0.4,0.5,0.6,0.8,0.6
				h58.3c0.3,0,0.6-0.2,0.8-0.6C60.6,49.5,60.5,49,60.3,48.7z"/>
		</g>
		<path fill="#FAFAFA" d="M40.8,27.2H20.2c-0.2,0-0.4,0.2-0.4,0.4v17.8c0,0.2,0.2,0.4,0.4,0.4h20.5c0.2,0,0.4-0.2,0.4-0.4V27.6
			C41.2,27.3,41,27.2,40.8,27.2z M27.9,31.1c0,1.3-1,2.3-2.3,2.3c-1.3,0-2.3-1-2.3-2.3c0-1.3,1-2.3,2.3-2.3
			C26.8,28.8,27.9,29.8,27.9,31.1z M39.8,40.4h-17h-1.4v-0.2l3.6-4.1l2,1.4l2.4-4.1l2.8,2l2.5-5.2l5.1,10L39.8,40.4L39.8,40.4z"/>
		<path fill="#FAFAFA" d="M30.5,9.2c-3.3,0-6,2.7-6,6c0,3.3,2.7,6,6,6s6-2.7,6-6C36.5,11.9,33.8,9.2,30.5,9.2z M29.6,18.8
			c-0.1,0.1-0.4,0.1-0.5,0L29,18.7l0,0l-0.1-0.1l-0.5-0.5l0,0l-2.3-2.3c-0.1-0.1-0.1-0.4,0-0.5l0.7-0.7c0.1-0.1,0.4-0.1,0.5,0
			l2.1,2.1l4.4-4.4c0.1-0.1,0.4-0.1,0.5,0l0.7,0.7c0.1,0.1,0.1,0.4,0,0.5L29.6,18.8z"/>
	</g>
	<g id="ui_x5F_searchField_x5F_inset_x5F_light">
	</g>
</g>
</svg>
