<?xml version="1.0" encoding="UTF-8" standalone="no"?>
<!-- Generator: Adobe Illustrator 18.0.0, SVG Export Plug-In . SVG Version: 6.00 Build 0)  -->

<svg
   xmlns:dc="http://purl.org/dc/elements/1.1/"
   xmlns:cc="http://creativecommons.org/ns#"
   xmlns:rdf="http://www.w3.org/1999/02/22-rdf-syntax-ns#"
   xmlns:svg="http://www.w3.org/2000/svg"
   xmlns="http://www.w3.org/2000/svg"
   xmlns:sodipodi="http://sodipodi.sourceforge.net/DTD/sodipodi-0.dtd"
   xmlns:inkscape="http://www.inkscape.org/namespaces/inkscape"
   version="1.1"
   x="0px"
   y="0px"
   viewBox="0 0 60.931371 50.975"
   enable-background="new 0 0 61 51"
   xml:space="preserve"
   id="svg2"
   inkscape:version="0.48.3.1 r9886"
   width="100%"
   height="100%"
   sodipodi:docname="foto-desactivado-icon.svg"><metadata
   id="metadata34"><rdf:RDF><cc:Work
       rdf:about=""><dc:format>image/svg+xml</dc:format><dc:type
         rdf:resource="http://purl.org/dc/dcmitype/StillImage" /></cc:Work></rdf:RDF></metadata><defs
   id="defs32" /><sodipodi:namedview
   pagecolor="#ffffff"
   bordercolor="#666666"
   borderopacity="1"
   objecttolerance="10"
   gridtolerance="10"
   guidetolerance="10"
   inkscape:pageopacity="0"
   inkscape:pageshadow="2"
   inkscape:window-width="1024"
   inkscape:window-height="709"
   id="namedview30"
   showgrid="false"
   fit-margin-top="0"
   fit-margin-left="0"
   fit-margin-right="0"
   fit-margin-bottom="0"
   inkscape:zoom="4.627451"
   inkscape:cx="30.065685"
   inkscape:cy="26.3"
   inkscape:window-x="0"
   inkscape:window-y="27"
   inkscape:window-maximized="1"
   inkscape:current-layer="svg2" />
<g
   id="Capa_1"
   transform="translate(-0.43431458,-0.825)">
</g>
<g
   id="MAPA"
   transform="translate(-0.43431458,-0.825)">
	<g
   id="ui_x5F_buttonCircle_big_x5F_blue">
	</g>
</g>
<g
   id="BOTONES"
   transform="translate(-0.43431458,-0.825)">
</g>
<g
   id="SUPERIOR_BAR"
   transform="translate(-0.43431458,-0.825)">
</g>
<g
   id="BUSCADOR-LUPA_1_"
   transform="translate(-0.43431458,-0.825)">
</g>
<g
   id="Capa_4"
   transform="translate(-0.43431458,-0.825)">
</g>
<g
   id="categorias"
   transform="translate(-0.43431458,-0.825)">
</g>
<g
   id="BUSCADOR_EXPANDIDO"
   transform="translate(-0.43431458,-0.825)">
</g>
<g
   id="CAPA-OSCURECIDA"
   transform="translate(-0.43431458,-0.825)">
</g>
<g
   id="MENU_LATERAL_IZDO"
   transform="translate(-0.43431458,-0.825)">
</g>
<g
   id="VENTANA-EMERGENTE-REGISTRO"
   transform="translate(-0.43431458,-0.825)">
</g>
<g
   id="MENU_ANDROID_INFERIOR"
   transform="translate(-0.43431458,-0.825)">
	<g
   id="ui_x5F_button_x5F_raised_2">
	</g>
	<g
   id="ui_x5F_dialog_x5F_light_2">
	</g>
	<g
   id="ic_x5F_radioButtonOn_x5F_color_x0D_">
	</g>
	<g
   id="g20">
		<g
   id="_x3C_Group_x3E__12_">
			<path
   stroke-miterlimit="10"
   d="M 60.7,49.5 31.6,1.7 c -0.3,-0.5 -1,-0.5 -1.4,0 L 1.1,49.5 c -0.2,0.3 -0.2,0.8 -0.1,1.2 0.1,0.4 0.5,0.6 0.8,0.6 H 60 c 0.3,0 0.6,-0.2 0.8,-0.6 0.1,-0.4 0.1,-0.9 -0.1,-1.2 z"
   id="path23"
   inkscape:connector-curvature="0"
   style="fill:none;stroke:#9e9e9e;stroke-miterlimit:10" />
		</g>
		<path
   d="M 41.2,28 H 20.6 c -0.2,0 -0.4,0.2 -0.4,0.4 v 17.8 c 0,0.2 0.2,0.4 0.4,0.4 h 20.5 c 0.2,0 0.4,-0.2 0.4,-0.4 V 28.4 C 41.6,28.2 41.4,28 41.2,28 z m -13,3.9 c 0,1.3 -1,2.3 -2.3,2.3 -1.3,0 -2.3,-1 -2.3,-2.3 0,-1.3 1,-2.3 2.3,-2.3 1.3,0 2.3,1 2.3,2.3 z m 11.9,9.3 h -17 -1.4 V 41 l 3.6,-4.1 2,1.4 2.4,-4.1 2.8,2 2.5,-5.2 5.1,10 0,0.2 0,0 z"
   id="path25"
   inkscape:connector-curvature="0"
   style="fill:#9e9e9e" />
		<path
   d="m 31.1,9.9 c -3.3,0 -6,2.7 -6,6 0,3.3 2.7,6 6,6 3.3,0 6,-2.7 6,-6 0,-3.3 -2.7,-6 -6,-6 z m 3.1,6.9 H 32 V 19 H 30.2 V 16.8 H 28 V 15 h 2.1 V 12.9 H 32 V 15 h 2.1 v 1.8 z"
   id="path27"
   inkscape:connector-curvature="0"
   style="fill:#9e9e9e" />
	</g>
	<g
   id="ui_x5F_searchField_x5F_inset_x5F_light">
	</g>
</g>
</svg>