<?xml version="1.0" encoding="UTF-8" standalone="no"?>
<!-- Generator: Adobe Illustrator 18.0.0, SVG Export Plug-In . SVG Version: 6.00 Build 0)  -->

<svg
   xmlns:dc="http://purl.org/dc/elements/1.1/"
   xmlns:cc="http://creativecommons.org/ns#"
   xmlns:rdf="http://www.w3.org/1999/02/22-rdf-syntax-ns#"
   xmlns:svg="http://www.w3.org/2000/svg"
   xmlns="http://www.w3.org/2000/svg"
   xmlns:sodipodi="http://sodipodi.sourceforge.net/DTD/sodipodi-0.dtd"
   xmlns:inkscape="http://www.inkscape.org/namespaces/inkscape"
   version="1.1"
   x="0px"
   y="0px"
   viewBox="0 0 38.898304 44"
   enable-background="new 0 0 55 44"
   xml:space="preserve"
   id="svg2"
   inkscape:version="0.48.3.1 r9886"
   width="100%"
   height="100%"
   sodipodi:docname="icono-IR-WEB-panoraudio-51.svg"><metadata
   id="metadata41"><rdf:RDF><cc:Work
       rdf:about=""><dc:format>image/svg+xml</dc:format><dc:type
         rdf:resource="http://purl.org/dc/dcmitype/StillImage" /></cc:Work></rdf:RDF></metadata><defs
   id="defs39">
		
		
	</defs><sodipodi:namedview
   pagecolor="#ffffff"
   bordercolor="#666666"
   borderopacity="1"
   objecttolerance="10"
   gridtolerance="10"
   guidetolerance="10"
   inkscape:pageopacity="0"
   inkscape:pageshadow="2"
   inkscape:window-width="1024"
   inkscape:window-height="709"
   id="namedview37"
   showgrid="false"
   fit-margin-top="0"
   fit-margin-left="0"
   fit-margin-right="0"
   fit-margin-bottom="0"
   inkscape:zoom="5.3636364"
   inkscape:cx="11.898305"
   inkscape:cy="19.605713"
   inkscape:window-x="0"
   inkscape:window-y="27"
   inkscape:window-maximized="1"
   inkscape:current-layer="MENU_ANDROID_INFERIOR" />
<g
   id="Capa_1"
   transform="translate(-15.601695,0)">
</g>
<g
   id="MAPA"
   transform="translate(-15.601695,0)">
	<g
   id="ui_x5F_buttonCircle_big_x5F_blue">
	</g>
</g>
<g
   id="BOTONES"
   transform="translate(-15.601695,0)">
</g>
<g
   id="SUPERIOR_BAR"
   transform="translate(-15.601695,0)">
</g>
<g
   id="BUSCADOR-LUPA_1_"
   transform="translate(-15.601695,0)">
</g>
<g
   id="Capa_4"
   transform="translate(-15.601695,0)">
</g>
<g
   id="categorias"
   transform="translate(-15.601695,0)">
</g>
<g
   id="BUSCADOR_EXPANDIDO"
   transform="translate(-15.601695,0)">
</g>
<g
   id="CAPA-OSCURECIDA"
   transform="translate(-15.601695,0)">
</g>
<g
   id="MENU_LATERAL_IZDO"
   transform="translate(-15.601695,0)">
</g>
<g
   id="VENTANA-EMERGENTE-REGISTRO"
   transform="translate(-15.601695,0)">
</g>
<g
   id="MENU_ANDROID_INFERIOR"
   transform="translate(-15.601695,0)">
	<g
   id="ui_x5F_button_x5F_raised_2">
	</g>
	<g
   id="ui_x5F_dialog_x5F_light_2">
	</g>
	<g
   id="ic_x5F_radioButtonOn_x5F_color_x0D_">
	</g>
	<rect
   style="fill:#1976d2"
   id="rect22"
   height="44"
   width="38.898304"
   y="0"
   x="15.601695" /><g
   id="g24">
			<path
   style="fill:#4dd0e1"
   inkscape:connector-curvature="0"
   id="path26"
   d="m 36.1,9.6 c 0,0 0,0 0,0 l 0,0 c -4.7,0 -8.2,1.8 -10.5,4.5 -0.4,0.4 -0.7,0.9 -1,1.3 h 1.3 c 0.2,-0.2 0.3,-0.4 0.5,-0.6 2.1,-2.4 5.3,-4.1 9.7,-4.1 l 0,-0.5 0,0.5 0,-0.2 0,0.2 c 4,0 7.5,1.9 9.7,4.7 h 1.3 C 44.7,12 40.7,9.6 36.1,9.6 z" />
			<path
   style="fill:#4dd0e1"
   inkscape:connector-curvature="0"
   id="path28"
   d="m 36.1,6.9 c 0,0 0,0 0,0 l 0,0 c -5.7,0 -10,2.1 -12.7,5.4 -0.8,1 -1.5,2.1 -2,3.2 l 1.2,0 c 0.5,-0.9 1,-1.7 1.7,-2.5 2.5,-3 6.5,-5 11.9,-5 l 0,-0.5 0,0.5 h 0 c 5.7,0 10.5,3 13,7.5 h 1.2 C 47.7,10.4 42.4,6.9 36.1,6.9 z" />
			<path
   style="fill:#4dd0e1"
   inkscape:connector-curvature="0"
   id="path30"
   d="m 36,12.5 c -3.3,0 -5.9,1.2 -7.7,3 h 1.6 c 1.5,-1.2 3.6,-1.9 6.1,-1.9 h 0 c 2.2,0 4.1,0.7 5.7,1.9 h 1.6 c -1.8,-1.9 -4.4,-3 -7.3,-3 l 0,0 z" />
			<path
   style="fill:#4dd0e1"
   inkscape:connector-curvature="0"
   id="path32"
   d="m 41,17.5 c -1.1,-1 -3.1,-2.2 -5.5,-2 -4,0.3 -7.1,3.2 -7.3,7.1 -0.2,2.2 0.5,3.6 1.4,5 2,3.1 4.3,6.5 6.3,9.4 1.9,-2.9 4.2,-6.4 6.2,-9.5 0.7,-1.1 1.3,-2.3 1.4,-3.8 0.1,-2.8 -1.1,-4.9 -2.5,-6.2 z m -6.6,10.7 c -3.7,-0.9 -4.9,-5.8 -2.6,-8.5 0.9,-1 2.3,-1.7 4.1,-1.7 2.7,0 4.9,2 5.1,4.6 0.4,3.4 -2.8,6.5 -6.6,5.6 z" />
			<path
   style="fill:#4dd0e1;fill-rule:evenodd"
   inkscape:connector-curvature="0"
   id="path34"
   d="m 35.4,27.1 c -3.3,-0.8 -4.3,-5.2 -2.3,-7.6 0.3,-0.3 0.6,-0.6 1,-0.9 -0.7,0.3 -1.2,0.7 -1.6,1.2 -2,2.4 -0.9,6.8 2.3,7.6 1.3,0.3 2.6,0.1 3.6,-0.5 -0.9,0.4 -2,0.5 -3,0.2 z"
   clip-rule="evenodd" />
		</g>
	<g
   id="ui_x5F_searchField_x5F_inset_x5F_light">
	</g>
</g>
</svg>