<?xml version="1.0" encoding="utf-8"?>
<!-- Generator: Adobe Illustrator 18.0.0, SVG Export Plug-In . SVG Version: 6.00 Build 0)  -->
<!DOCTYPE svg PUBLIC "-//W3C//DTD SVG 1.1//EN" "http://www.w3.org/Graphics/SVG/1.1/DTD/svg11.dtd">
<svg version="1.1" xmlns="http://www.w3.org/2000/svg" xmlns:xlink="http://www.w3.org/1999/xlink" x="0px" y="0px"
	 viewBox="0 0 136.6 45.6" enable-background="new 0 0 136.6 45.6" xml:space="preserve">
<g id="Capa_1">
</g>
<g id="MAPA">
	<g id="ui_x5F_buttonCircle_big_x5F_blue">
	</g>
</g>
<g id="BOTONES">
</g>
<g id="SUPERIOR_BAR">
</g>
<g id="BUSCADOR-LUPA_1_">
</g>
<g id="Capa_4">
</g>
<g id="categorias">
</g>
<g id="BUSCADOR_EXPANDIDO">
</g>
<g id="CAPA-OSCURECIDA">
</g>
<g id="MENU_LATERAL_IZDO">
</g>
<g id="VENTANA-EMERGENTE-REGISTRO">
</g>
<g id="MENU_ANDROID_INFERIOR">
	<g id="ui_x5F_button_x5F_raised_2">
	</g>
	<g id="ui_x5F_dialog_x5F_light_2">
	</g>
	<g id="ic_x5F_radioButtonOn_x5F_color_x0D_">
	</g>
	<g>
		<path fill="#00ACC1" d="M51.8,6.1C51.8,6.1,51.8,6.1,51.8,6.1L51.8,6.1c-6.4,0-11.3,2.4-14.3,6.1c-0.5,0.6-0.9,1.2-1.3,1.8h1.8
			c0.2-0.3,0.4-0.6,0.7-0.9c2.8-3.3,7.2-5.6,13.2-5.6l0-0.7l0,0.7l0-0.2l0,0.2c5.5,0,10.2,2.6,13.3,6.5h1.8
			C63.6,9.2,58.1,6.1,51.8,6.1z"/>
		<path fill="#00ACC1" d="M51.8,2.3C51.8,2.3,51.8,2.3,51.8,2.3L51.8,2.3c-7.8,0-13.6,2.9-17.4,7.4c-1.1,1.3-2.1,2.8-2.8,4.4l1.6,0
			c0.6-1.2,1.4-2.4,2.3-3.4c3.5-4.1,8.9-6.8,16.2-6.9l0-0.7l0,0.7h0c7.7,0,14.4,4.1,17.8,10.2h1.7C67.7,7.1,60.4,2.3,51.8,2.3z"/>
		<path fill="#00ACC1" d="M51.8,9.9c-4.5,0-8.1,1.6-10.6,4h2.2c2.1-1.6,4.9-2.6,8.4-2.6h0c2.9,0,5.6,1,7.8,2.6h2.2
			C59.2,11.5,55.7,9.9,51.8,9.9L51.8,9.9z"/>
		<g>
			<path fill="#1976D2" d="M12.3,15.9c0.8,0,1.5,0.1,2,0.3c0.6,0.2,1,0.5,1.4,0.9c0.3,0.4,0.6,0.8,0.8,1.3c0.2,0.5,0.2,1,0.2,1.5
				c0,0.5-0.1,1-0.2,1.5c-0.2,0.5-0.4,0.9-0.8,1.3c-0.3,0.4-0.8,0.7-1.4,0.9c-0.6,0.2-1.2,0.3-2,0.3H9.4v4.5H6.6V15.9H12.3z
				 M11.6,21.9c0.3,0,0.6,0,0.9-0.1c0.3,0,0.6-0.1,0.8-0.3c0.2-0.1,0.4-0.3,0.5-0.6c0.1-0.2,0.2-0.6,0.2-1s-0.1-0.7-0.2-1
				c-0.1-0.2-0.3-0.4-0.5-0.6c-0.2-0.1-0.5-0.2-0.8-0.3c-0.3,0-0.6-0.1-0.9-0.1H9.4v3.8H11.6z"/>
			<path fill="#1976D2" d="M23.5,15.9l4.7,12.7h-2.9l-1-2.8h-4.7l-1,2.8h-2.8l4.8-12.7H23.5z M23.6,23.7L22,19h0l-1.7,4.7H23.6z"/>
			<path fill="#1976D2" d="M32.1,15.9l5.3,8.5h0v-8.5H40v12.7h-2.8L32,20.1h0v8.5h-2.6V15.9H32.1z"/>
			<path fill="#1976D2" d="M69.5,15.9c0.6,0,1.1,0.1,1.5,0.3c0.5,0.2,0.8,0.4,1.2,0.8c0.3,0.3,0.6,0.7,0.7,1.1
				c0.2,0.4,0.3,0.9,0.3,1.4c0,0.7-0.2,1.4-0.5,1.9c-0.3,0.5-0.8,1-1.5,1.2v0c0.3,0.1,0.6,0.2,0.9,0.4c0.2,0.2,0.4,0.4,0.6,0.7
				c0.1,0.3,0.2,0.6,0.3,0.9c0.1,0.3,0.1,0.6,0.1,1c0,0.2,0,0.4,0,0.7c0,0.3,0,0.6,0.1,0.8c0,0.3,0.1,0.6,0.1,0.8
				c0.1,0.3,0.2,0.5,0.3,0.6h-2.8c-0.2-0.4-0.2-0.9-0.3-1.4c0-0.6-0.1-1.1-0.2-1.6c-0.1-0.7-0.3-1.1-0.6-1.5
				c-0.3-0.3-0.8-0.5-1.5-0.5h-2.8v5h-2.8V15.9H69.5z M68.5,21.6c0.6,0,1.1-0.1,1.4-0.4c0.3-0.3,0.5-0.7,0.5-1.4
				c0-0.6-0.2-1.1-0.5-1.3c-0.3-0.3-0.8-0.4-1.4-0.4h-3.1v3.6H68.5z"/>
			<path fill="#00ACC1" d="M79.5,15.9h2.4l4.9,12.7h-2.4l-1.2-3.4h-5.1l-1.2,3.4h-2.3L79.5,15.9z M78.7,23.5h3.9l-1.9-5.5h-0.1
				L78.7,23.5z"/>
			<path fill="#00ACC1" d="M87.8,15.9H90v7.4c0,0.4,0,0.9,0.1,1.3c0,0.4,0.2,0.8,0.4,1.2c0.2,0.3,0.5,0.6,0.9,0.9
				c0.4,0.2,1,0.3,1.7,0.3s1.3-0.1,1.7-0.3c0.4-0.2,0.7-0.5,0.9-0.9c0.2-0.3,0.3-0.7,0.4-1.2c0-0.4,0.1-0.9,0.1-1.3v-7.4h2.2V24
				c0,0.8-0.1,1.5-0.4,2.1c-0.2,0.6-0.6,1.1-1.1,1.5c-0.5,0.4-1,0.7-1.6,0.9c-0.6,0.2-1.4,0.3-2.1,0.3c-0.8,0-1.5-0.1-2.1-0.3
				c-0.6-0.2-1.2-0.5-1.6-0.9c-0.5-0.4-0.8-0.9-1.1-1.5c-0.2-0.6-0.4-1.3-0.4-2.1V15.9z"/>
			<path fill="#00ACC1" d="M100.8,15.9h5.3c1,0,1.8,0.2,2.5,0.5c0.7,0.3,1.3,0.8,1.7,1.4c0.4,0.6,0.8,1.2,1,2
				c0.2,0.8,0.3,1.6,0.3,2.5c0,0.9-0.1,1.7-0.3,2.5c-0.2,0.8-0.6,1.4-1,2c-0.5,0.6-1,1-1.7,1.4c-0.7,0.3-1.6,0.5-2.5,0.5h-5.3V15.9z
				 M103,26.8h2.2c0.9,0,1.6-0.1,2.1-0.3c0.6-0.2,1-0.6,1.3-1c0.3-0.4,0.5-0.9,0.6-1.4c0.1-0.6,0.2-1.1,0.2-1.8
				c0-0.6-0.1-1.2-0.2-1.8c-0.1-0.6-0.3-1-0.6-1.4c-0.3-0.4-0.7-0.7-1.3-1c-0.6-0.2-1.3-0.3-2.1-0.3H103V26.8z"/>
			<path fill="#00ACC1" d="M113.6,15.9h2.2v12.7h-2.2V15.9z"/>
			<path fill="#00ACC1" d="M123.9,15.6c0.9,0,1.8,0.2,2.5,0.5c0.8,0.4,1.4,0.8,1.9,1.4c0.5,0.6,0.9,1.3,1.2,2.1
				c0.3,0.8,0.4,1.7,0.4,2.6c0,0.9-0.1,1.8-0.4,2.6c-0.3,0.8-0.7,1.5-1.2,2.1c-0.5,0.6-1.2,1.1-1.9,1.4s-1.6,0.5-2.5,0.5
				s-1.8-0.2-2.5-0.5c-0.8-0.3-1.4-0.8-1.9-1.4c-0.5-0.6-0.9-1.3-1.2-2.1c-0.3-0.8-0.4-1.7-0.4-2.6c0-0.9,0.1-1.8,0.4-2.6
				c0.3-0.8,0.7-1.5,1.2-2.1c0.5-0.6,1.2-1.1,1.9-1.4C122.1,15.8,123,15.6,123.9,15.6z M123.9,17.4c-0.7,0-1.3,0.1-1.8,0.4
				c-0.5,0.3-0.9,0.6-1.2,1.1c-0.3,0.5-0.5,1-0.7,1.6c-0.1,0.6-0.2,1.2-0.2,1.8c0,0.6,0.1,1.2,0.2,1.8c0.1,0.6,0.4,1.1,0.7,1.6
				c0.3,0.5,0.7,0.8,1.2,1.1c0.5,0.3,1.1,0.4,1.8,0.4c0.7,0,1.3-0.1,1.8-0.4c0.5-0.3,0.9-0.6,1.2-1.1c0.3-0.5,0.5-1,0.7-1.6
				c0.1-0.6,0.2-1.2,0.2-1.8c0-0.6-0.1-1.2-0.2-1.8c-0.1-0.6-0.4-1.1-0.7-1.6c-0.3-0.5-0.7-0.8-1.2-1.1
				C125.2,17.5,124.6,17.4,123.9,17.4z"/>
		</g>
		<path fill="#00ACC1" d="M58.8,16.7c-1.6-1.4-4.3-3-7.5-2.7c-5.4,0.4-9.7,4.3-10,9.7c-0.2,3.1,0.7,5,1.9,6.8
			c2.7,4.3,5.8,8.9,8.6,12.9c2.6-4,5.7-8.8,8.4-13c1-1.5,1.8-3.1,1.9-5.2C62.3,21.3,60.7,18.4,58.8,16.7z M49.7,31.3
			c-5-1.2-6.7-8-3.6-11.7c1.2-1.4,3.1-2.4,5.6-2.4c3.7,0,6.7,2.8,7,6.3C59.2,28.3,54.9,32.5,49.7,31.3z"/>
		<path fill-rule="evenodd" clip-rule="evenodd" fill="#00ACC1" d="M50.8,29.9c-4.5-1.1-5.9-7.1-3.2-10.4c0.4-0.5,0.9-0.9,1.4-1.2
			c-0.9,0.4-1.7,0.9-2.2,1.6c-2.8,3.3-1.3,9.3,3.2,10.4c1.8,0.4,3.5,0.1,4.9-0.7C53.7,30.2,52.3,30.3,50.8,29.9z"/>
	</g>
	<g id="ui_x5F_searchField_x5F_inset_x5F_light">
	</g>
</g>
</svg>
