<?xml version="1.0" encoding="UTF-8" standalone="no"?>
<!-- Created with Inkscape (http://www.inkscape.org/) -->

<svg
   xmlns:dc="http://purl.org/dc/elements/1.1/"
   xmlns:cc="http://creativecommons.org/ns#"
   xmlns:rdf="http://www.w3.org/1999/02/22-rdf-syntax-ns#"
   xmlns:svg="http://www.w3.org/2000/svg"
   xmlns="http://www.w3.org/2000/svg"
   version="1.1"
   width="100%"
   height="100%"
   viewBox="0 0 136.6 45.6"
   id="svg2"
   xml:space="preserve"><metadata
   id="metadata57"><rdf:RDF><cc:Work
       rdf:about=""><dc:format>image/svg+xml</dc:format><dc:type
         rdf:resource="http://purl.org/dc/dcmitype/StillImage" /><dc:title></dc:title></cc:Work></rdf:RDF></metadata><defs
   id="defs55">
	
	
	
	
	

		
		
		
		
		
		
	
			
			
			
			
			
			
			
			
			
		</defs>
<g
   id="Capa_1">
</g>
<g
   id="MAPA">
	<g
   id="ui_x5F_buttonCircle_big_x5F_blue">
	</g>
</g>
<g
   id="BOTONES">
</g>
<g
   id="SUPERIOR_BAR">
</g>
<g
   id="BUSCADOR-LUPA_1_">
</g>
<g
   id="Capa_4">
</g>
<g
   id="categorias">
</g>
<g
   id="BUSCADOR_EXPANDIDO">
</g>
<g
   id="CAPA-OSCURECIDA">
</g>
<g
   id="MENU_LATERAL_IZDO">
</g>
<g
   id="VENTANA-EMERGENTE-REGISTRO">
</g>
<g
   id="ui_x5F_button_x5F_raised_2">
	</g><g
   id="ui_x5F_dialog_x5F_light_2">
	</g><g
   id="ic_x5F_radioButtonOn_x5F_color_x0D_">
	</g><path
   d="m 51.8,6.1 c 0,0 0,0 0,0 l 0,0 C 45.4,6.1 40.5,8.5 37.5,12.2 37,12.8 36.6,13.4 36.2,14 H 38 c 0.2,-0.3 0.4,-0.6 0.7,-0.9 2.8,-3.3 7.2,-5.6 13.2,-5.6 l 0,-0.7 0,0.7 0,-0.2 0,0.2 c 5.5,0 10.2,2.6 13.3,6.5 H 67 C 63.6,9.2 58.1,6.1 51.8,6.1 z"
   id="path22"
   style="fill:#00acc1" /><path
   d="m 51.8,2.3 c 0,0 0,0 0,0 l 0,0 C 44,2.3 38.2,5.2 34.4,9.7 33.3,11 32.3,12.5 31.6,14.1 l 1.6,0 c 0.6,-1.2 1.4,-2.4 2.3,-3.4 C 39,6.6 44.4,3.9 51.7,3.8 l 0,-0.7 0,0.7 h 0 c 7.7,0 14.4,4.1 17.8,10.2 h 1.7 C 67.7,7.1 60.4,2.3 51.8,2.3 z"
   id="path24"
   style="fill:#00acc1" /><path
   d="m 51.8,9.9 c -4.5,0 -8.1,1.6 -10.6,4 h 2.2 c 2.1,-1.6 4.9,-2.6 8.4,-2.6 h 0 c 2.9,0 5.6,1 7.8,2.6 h 2.2 c -2.6,-2.4 -6.1,-4 -10,-4 l 0,0 z"
   id="path26"
   style="fill:#00acc1" /><path
   d="m 12.3,15.9 c 0.8,0 1.5,0.1 2,0.3 0.6,0.2 1,0.5 1.4,0.9 0.3,0.4 0.6,0.8 0.8,1.3 0.2,0.5 0.2,1 0.2,1.5 0,0.5 -0.1,1 -0.2,1.5 -0.2,0.5 -0.4,0.9 -0.8,1.3 -0.3,0.4 -0.8,0.7 -1.4,0.9 -0.6,0.2 -1.2,0.3 -2,0.3 H 9.4 v 4.5 H 6.6 V 15.9 h 5.7 z m -0.7,6 c 0.3,0 0.6,0 0.9,-0.1 0.3,0 0.6,-0.1 0.8,-0.3 0.2,-0.1 0.4,-0.3 0.5,-0.6 0.1,-0.2 0.2,-0.6 0.2,-1 0,-0.4 -0.1,-0.7 -0.2,-1 -0.1,-0.2 -0.3,-0.4 -0.5,-0.6 -0.2,-0.1 -0.5,-0.2 -0.8,-0.3 -0.3,0 -0.6,-0.1 -0.9,-0.1 H 9.4 v 3.8 h 2.2 z"
   id="path30"
   style="fill:#ffffff;fill-opacity:1" /><path
   d="m 23.5,15.9 4.7,12.7 h -2.9 l -1,-2.8 h -4.7 l -1,2.8 h -2.8 l 4.8,-12.7 h 2.9 z M 23.6,23.7 22,19 h 0 l -1.7,4.7 h 3.3 z"
   id="path32"
   style="fill:#ffffff;fill-opacity:1" /><path
   d="m 32.1,15.9 5.3,8.5 h 0 V 15.9 H 40 V 28.6 H 37.2 L 32,20.1 h 0 v 8.5 H 29.4 V 15.9 h 2.7 z"
   id="path34"
   style="fill:#ffffff;fill-opacity:1" /><path
   d="m 69.5,15.9 c 0.6,0 1.1,0.1 1.5,0.3 0.5,0.2 0.8,0.4 1.2,0.8 0.3,0.3 0.6,0.7 0.7,1.1 0.2,0.4 0.3,0.9 0.3,1.4 0,0.7 -0.2,1.4 -0.5,1.9 -0.3,0.5 -0.8,1 -1.5,1.2 v 0 c 0.3,0.1 0.6,0.2 0.9,0.4 0.2,0.2 0.4,0.4 0.6,0.7 0.1,0.3 0.2,0.6 0.3,0.9 0.1,0.3 0.1,0.6 0.1,1 0,0.2 0,0.4 0,0.7 0,0.3 0,0.6 0.1,0.8 0,0.3 0.1,0.6 0.1,0.8 0.1,0.3 0.2,0.5 0.3,0.6 H 70.8 C 70.6,28.1 70.6,27.6 70.5,27.1 70.5,26.5 70.4,26 70.3,25.5 70.2,24.8 70,24.4 69.7,24 69.4,23.7 68.9,23.5 68.2,23.5 h -2.8 v 5 H 62.6 V 15.9 h 6.9 z m -1,5.7 c 0.6,0 1.1,-0.1 1.4,-0.4 0.3,-0.3 0.5,-0.7 0.5,-1.4 0,-0.6 -0.2,-1.1 -0.5,-1.3 -0.3,-0.3 -0.8,-0.4 -1.4,-0.4 h -3.1 v 3.6 h 3.1 z"
   id="path36"
   style="fill:#ffffff;fill-opacity:1" /><path
   d="m 79.5,15.9 h 2.4 l 4.9,12.7 h -2.4 l -1.2,-3.4 h -5.1 l -1.2,3.4 h -2.3 l 4.9,-12.7 z m -0.8,7.6 h 3.9 L 80.7,18 h -0.1 l -1.9,5.5 z"
   id="path38"
   style="fill:#00acc1" /><path
   d="M 87.8,15.9 H 90 v 7.4 c 0,0.4 0,0.9 0.1,1.3 0,0.4 0.2,0.8 0.4,1.2 0.2,0.3 0.5,0.6 0.9,0.9 0.4,0.2 1,0.3 1.7,0.3 0.7,0 1.3,-0.1 1.7,-0.3 0.4,-0.2 0.7,-0.5 0.9,-0.9 0.2,-0.3 0.3,-0.7 0.4,-1.2 0,-0.4 0.1,-0.9 0.1,-1.3 v -7.4 h 2.2 V 24 c 0,0.8 -0.1,1.5 -0.4,2.1 -0.2,0.6 -0.6,1.1 -1.1,1.5 -0.5,0.4 -1,0.7 -1.6,0.9 -0.6,0.2 -1.4,0.3 -2.1,0.3 -0.8,0 -1.5,-0.1 -2.1,-0.3 C 90.5,28.3 89.9,28 89.5,27.6 89,27.2 88.7,26.7 88.4,26.1 88.2,25.5 88,24.8 88,24 v -8.1 z"
   id="path40"
   style="fill:#00acc1" /><path
   d="m 100.8,15.9 h 5.3 c 1,0 1.8,0.2 2.5,0.5 0.7,0.3 1.3,0.8 1.7,1.4 0.4,0.6 0.8,1.2 1,2 0.2,0.8 0.3,1.6 0.3,2.5 0,0.9 -0.1,1.7 -0.3,2.5 -0.2,0.8 -0.6,1.4 -1,2 -0.5,0.6 -1,1 -1.7,1.4 -0.7,0.3 -1.6,0.5 -2.5,0.5 h -5.3 V 15.9 z m 2.2,10.9 h 2.2 c 0.9,0 1.6,-0.1 2.1,-0.3 0.6,-0.2 1,-0.6 1.3,-1 0.3,-0.4 0.5,-0.9 0.6,-1.4 0.1,-0.6 0.2,-1.1 0.2,-1.8 0,-0.6 -0.1,-1.2 -0.2,-1.8 -0.1,-0.6 -0.3,-1 -0.6,-1.4 -0.3,-0.4 -0.7,-0.7 -1.3,-1 -0.6,-0.2 -1.3,-0.3 -2.1,-0.3 H 103 v 9 z"
   id="path42"
   style="fill:#00acc1" /><path
   d="m 113.6,15.9 h 2.2 v 12.7 h -2.2 V 15.9 z"
   id="path44"
   style="fill:#00acc1" /><path
   d="m 123.9,15.6 c 0.9,0 1.8,0.2 2.5,0.5 0.8,0.4 1.4,0.8 1.9,1.4 0.5,0.6 0.9,1.3 1.2,2.1 0.3,0.8 0.4,1.7 0.4,2.6 0,0.9 -0.1,1.8 -0.4,2.6 -0.3,0.8 -0.7,1.5 -1.2,2.1 -0.5,0.6 -1.2,1.1 -1.9,1.4 -0.7,0.3 -1.6,0.5 -2.5,0.5 -0.9,0 -1.8,-0.2 -2.5,-0.5 -0.8,-0.3 -1.4,-0.8 -1.9,-1.4 -0.5,-0.6 -0.9,-1.3 -1.2,-2.1 -0.3,-0.8 -0.4,-1.7 -0.4,-2.6 0,-0.9 0.1,-1.8 0.4,-2.6 0.3,-0.8 0.7,-1.5 1.2,-2.1 0.5,-0.6 1.2,-1.1 1.9,-1.4 0.7,-0.3 1.6,-0.5 2.5,-0.5 z m 0,1.8 c -0.7,0 -1.3,0.1 -1.8,0.4 -0.5,0.3 -0.9,0.6 -1.2,1.1 -0.3,0.5 -0.5,1 -0.7,1.6 -0.1,0.6 -0.2,1.2 -0.2,1.8 0,0.6 0.1,1.2 0.2,1.8 0.1,0.6 0.4,1.1 0.7,1.6 0.3,0.5 0.7,0.8 1.2,1.1 0.5,0.3 1.1,0.4 1.8,0.4 0.7,0 1.3,-0.1 1.8,-0.4 0.5,-0.3 0.9,-0.6 1.2,-1.1 0.3,-0.5 0.5,-1 0.7,-1.6 0.1,-0.6 0.2,-1.2 0.2,-1.8 0,-0.6 -0.1,-1.2 -0.2,-1.8 -0.1,-0.6 -0.4,-1.1 -0.7,-1.6 -0.3,-0.5 -0.7,-0.8 -1.2,-1.1 -0.5,-0.3 -1.1,-0.4 -1.8,-0.4 z"
   id="path46"
   style="fill:#00acc1" /><path
   d="m 58.8,16.7 c -1.6,-1.4 -4.3,-3 -7.5,-2.7 -5.4,0.4 -9.7,4.3 -10,9.7 -0.2,3.1 0.7,5 1.9,6.8 2.7,4.3 5.8,8.9 8.6,12.9 2.6,-4 5.7,-8.8 8.4,-13 1,-1.5 1.8,-3.1 1.9,-5.2 0.2,-3.9 -1.4,-6.8 -3.3,-8.5 z m -9.1,14.6 c -5,-1.2 -6.7,-8 -3.6,-11.7 1.2,-1.4 3.1,-2.4 5.6,-2.4 3.7,0 6.7,2.8 7,6.3 0.5,4.8 -3.8,9 -9,7.8 z"
   id="path48"
   style="fill:#00acc1" /><path
   d="M 50.8,29.9 C 46.3,28.8 44.9,22.8 47.6,19.5 48,19 48.5,18.6 49,18.3 c -0.9,0.4 -1.7,0.9 -2.2,1.6 -2.8,3.3 -1.3,9.3 3.2,10.4 1.8,0.4 3.5,0.1 4.9,-0.7 -1.2,0.6 -2.6,0.7 -4.1,0.3 z"
   id="path50"
   style="fill:#00acc1;fill-rule:evenodd" /><g
   id="ui_x5F_searchField_x5F_inset_x5F_light">
	</g>
</svg>