<?xml version="1.0" encoding="UTF-8" standalone="no"?>
<!-- Generator: Adobe Illustrator 18.0.0, SVG Export Plug-In . SVG Version: 6.00 Build 0)  -->

<svg
   xmlns:dc="http://purl.org/dc/elements/1.1/"
   xmlns:cc="http://creativecommons.org/ns#"
   xmlns:rdf="http://www.w3.org/1999/02/22-rdf-syntax-ns#"
   xmlns:svg="http://www.w3.org/2000/svg"
   xmlns="http://www.w3.org/2000/svg"
   xmlns:sodipodi="http://sodipodi.sourceforge.net/DTD/sodipodi-0.dtd"
   xmlns:inkscape="http://www.inkscape.org/namespaces/inkscape"
   version="1.1"
   x="0px"
   y="0px"
   viewBox="0 0 37 37"
   enable-background="new 0 0 37 37"
   xml:space="preserve"
   id="svg2"
   inkscape:version="0.48.3.1 r9886"
   width="100%"
   height="100%"
   sodipodi:docname="mal-icon.svg"><metadata
   id="metadata31"><rdf:RDF><cc:Work
       rdf:about=""><dc:format>image/svg+xml</dc:format><dc:type
         rdf:resource="http://purl.org/dc/dcmitype/StillImage" /></cc:Work></rdf:RDF></metadata><defs
   id="defs29" /><sodipodi:namedview
   pagecolor="#ffffff"
   bordercolor="#666666"
   borderopacity="1"
   objecttolerance="10"
   gridtolerance="10"
   guidetolerance="10"
   inkscape:pageopacity="0"
   inkscape:pageshadow="2"
   inkscape:window-width="1024"
   inkscape:window-height="709"
   id="namedview27"
   showgrid="false"
   inkscape:zoom="6.3783784"
   inkscape:cx="18.5"
   inkscape:cy="18.5"
   inkscape:window-x="0"
   inkscape:window-y="27"
   inkscape:window-maximized="1"
   inkscape:current-layer="svg2" />
<g
   id="Capa_1">
</g>
<g
   id="MAPA">
	<g
   id="ui_x5F_buttonCircle_big_x5F_blue">
	</g>
</g>
<g
   id="BOTONES">
</g>
<g
   id="SUPERIOR_BAR">
</g>
<g
   id="BUSCADOR-LUPA_1_">
</g>
<g
   id="Capa_4">
</g>
<g
   id="categorias">
</g>
<g
   id="BUSCADOR_EXPANDIDO">
</g>
<g
   id="CAPA-OSCURECIDA">
</g>
<g
   id="MENU_LATERAL_IZDO">
</g>
<g
   id="VENTANA-EMERGENTE-REGISTRO">
</g>
<g
   id="MENU_ANDROID_INFERIOR"
   transform="matrix(-1,0,0,-1,37,37)">
	<g
   id="ui_x5F_button_x5F_raised_2">
	</g>
	<g
   id="ui_x5F_dialog_x5F_light_2">
	</g>
	<g
   id="g19">
		<circle
   cx="18.5"
   cy="18.5"
   r="18"
   id="circle21"
   d="m 36.5,18.5 c 0,9.941125 -8.058875,18 -18,18 -9.9411255,0 -18,-8.058875 -18,-18 0,-9.9411255 8.0588745,-18 18,-18 9.941125,0 18,8.0588745 18,18 z"
   sodipodi:cx="18.5"
   sodipodi:cy="18.5"
   sodipodi:rx="18"
   sodipodi:ry="18"
   style="opacity:0.85;fill:#ffcdd2" />
		<path
   d="m 27.4,19.2 c -0.1,-0.8 -0.8,-1.5 -1.7,-1.4 l -2.3,0.2 0,-0.1 1.8,-0.2 c 0.7,-0.1 1.3,-0.8 1.2,-1.7 -0.1,-0.8 -0.8,-1.5 -1.5,-1.4 l -6.1,0.6 -0.9,0 c 0,0 1.3,-0.6 0.3,-5.1 -1,-4.5 -3.5,-2.8 -3.5,-2.8 0,0 0,3.9 -0.2,4.4 -0.1,0.6 -3.1,6.3 -3.1,6.3 0,0.3 -1.8,0.6 -1.8,0.9 0,2.7 0,4.9 0,7.7 2,-0.5 3,1 7.3,1 1.4,0 3.1,-0.2 4.6,-0.5 l 3.8,-0.4 c 0.7,-0.1 1.1,-0.8 1,-1.7 -0.1,-0.7 -0.4,-1.2 -0.9,-1.3 l 0.5,0 C 26.7,23.6 27.2,22.9 27.1,22 27,21.3 26.5,20.7 25.9,20.6 l 0.2,0 c 0.8,0.2 1.4,-0.5 1.3,-1.4 z"
   id="path23"
   inkscape:connector-curvature="0"
   style="fill:#f44336" />
	</g>
	<g
   id="ic_x5F_radioButtonOn_x5F_color_x0D_">
	</g>
	<g
   id="ui_x5F_searchField_x5F_inset_x5F_light">
	</g>
</g>
</svg>