<?xml version="1.0" encoding="utf-8"?>
<!-- Generator: Adobe Illustrator 18.0.0, SVG Export Plug-In . SVG Version: 6.00 Build 0)  -->
<!DOCTYPE svg PUBLIC "-//W3C//DTD SVG 1.1//EN" "http://www.w3.org/Graphics/SVG/1.1/DTD/svg11.dtd">
<svg version="1.1" xmlns="http://www.w3.org/2000/svg" xmlns:xlink="http://www.w3.org/1999/xlink" x="0px" y="0px"
	 viewBox="0 0 32 34" enable-background="new 0 0 32 34" xml:space="preserve">
<g id="Capa_1">
</g>
<g id="MAPA">
	<g id="ui_x5F_buttonCircle_big_x5F_blue">
	</g>
</g>
<g id="BOTONES">
</g>
<g id="SUPERIOR_BAR">
</g>
<g id="BUSCADOR-LUPA_1_">
</g>
<g id="Capa_4">
</g>
<g id="categorias">
</g>
<g id="BUSCADOR_EXPANDIDO">
</g>
<g id="CAPA-OSCURECIDA">
</g>
<g id="MENU_LATERAL_IZDO">
</g>
<g id="VENTANA-EMERGENTE-REGISTRO">
</g>
<g id="MENU_ANDROID_INFERIOR">
	<g id="ui_x5F_button_x5F_raised_2">
	</g>
	<g id="ui_x5F_dialog_x5F_light_2">
	</g>
	<g id="ic_x5F_radioButtonOn_x5F_color_x0D_">
	</g>
	<g>
		<path fill="#00BCD4" d="M16.2,3.8L16.2,3.8L16.2,3.8c-5,0-8.9,1.9-11.3,4.8c-0.4,0.5-0.7,0.9-1,1.4h1.4c0.2-0.2,0.3-0.5,0.5-0.7
			C8,6.7,11.5,5,16.2,5l0-0.6l0,0.6l0-0.2l0,0.2c4.3,0,8.1,2,10.4,5.1h1.4C25.5,6.3,21.2,3.8,16.2,3.8z"/>
		<path fill="#00BCD4" d="M16.3,0.9C16.2,0.9,16.2,0.9,16.3,0.9L16.3,0.9c-6.1,0-10.7,2.3-13.7,5.8C1.7,7.7,1,8.9,0.4,10.1l1.3,0
			c0.5-0.9,1.1-1.9,1.8-2.7C6.2,4.2,10.5,2,16.2,2l0-0.6l0,0.6h0c6.1,0,11.3,3.3,14,8.1h1.3C28.8,4.6,23,0.9,16.3,0.9z"/>
		<path fill="#00BCD4" d="M16.2,6.9c-3.6,0-6.4,1.2-8.3,3.2h1.7c1.6-1.3,3.8-2,6.6-2h0c2.3,0,4.4,0.8,6.1,2h1.7
			C22.1,8.1,19.3,6.9,16.2,6.9L16.2,6.9z"/>
		<path fill="#00BCD4" d="M22.1,12.2c-1.2-1.1-3.4-2.3-5.9-2.2c-4.3,0.3-7.6,3.4-7.9,7.6C8.1,20,8.9,21.5,9.8,23
			c2.2,3.4,4.6,7,6.7,10.2c2-3.1,4.5-6.9,6.6-10.2c0.8-1.2,1.4-2.5,1.5-4.1C24.9,15.8,23.6,13.5,22.1,12.2z M15,23.6
			c-4-1-5.3-6.3-2.8-9.2c0.9-1.1,2.4-1.9,4.4-1.9c2.9,0,5.3,2.2,5.5,5C22.4,21.3,19.1,24.6,15,23.6z"/>
		<path fill-rule="evenodd" clip-rule="evenodd" fill="#00BCD4" d="M15.5,22.6c-3.5-0.9-4.7-5.6-2.5-8.2c0.3-0.4,0.7-0.7,1.1-0.9
			c-0.7,0.3-1.3,0.7-1.7,1.3c-2.2,2.6-1,7.3,2.5,8.2c1.4,0.3,2.8,0.1,3.8-0.5C17.7,22.8,16.6,22.9,15.5,22.6z"/>
	</g>
	<g id="ui_x5F_searchField_x5F_inset_x5F_light">
	</g>
</g>
</svg>
