<?xml version="1.0" encoding="utf-8"?>
<!-- Generator: Adobe Illustrator 18.0.0, SVG Export Plug-In . SVG Version: 6.00 Build 0)  -->
<!DOCTYPE svg PUBLIC "-//W3C//DTD SVG 1.1//EN" "http://www.w3.org/Graphics/SVG/1.1/DTD/svg11.dtd">
<svg version="1.1" xmlns="http://www.w3.org/2000/svg" xmlns:xlink="http://www.w3.org/1999/xlink" x="0px" y="0px"
	 viewBox="0 0 24 24" enable-background="new 0 0 24 24" xml:space="preserve">
<g id="Capa_1">
</g>
<g id="MAPA">
	<g id="ui_x5F_buttonCircle_big_x5F_blue">
	</g>
</g>
<g id="BOTONES">
</g>
<g id="SUPERIOR_BAR">
</g>
<g id="BUSCADOR-LUPA_1_">
</g>
<g id="Capa_4">
</g>
<g id="categorias">
</g>
<g id="BUSCADOR_EXPANDIDO">
</g>
<g id="CAPA-OSCURECIDA">
</g>
<g id="MENU_LATERAL_IZDO">
</g>
<g id="VENTANA-EMERGENTE-REGISTRO">
</g>
<g id="MENU_ANDROID_INFERIOR">
	<g id="ui_x5F_button_x5F_raised_2">
	</g>
	<g id="ui_x5F_dialog_x5F_light_2">
	</g>
	<g id="ic_x5F_radioButtonOn_x5F_color_x0D_">
	</g>
	<g>
		<path fill="#8CBBE9" d="M19.7,14.7c-0.5-1.1-3.4-2-3.4-2c-1.6-0.6-1.6-1.1-1.6-1.1c-3.1,6.1-5.5,0-5.5,0c-0.2,0.8-3.4,1.8-3.4,1.8
			c-0.9,0.4-1.3,0.9-1.3,0.9c-1.4,2-1.5,6.6-1.5,6.6c0,1,0.5,1.1,0.5,1.1c3.2,1.4,8.2,1.7,8.2,1.7c5.1,0.1,8.8-1.5,8.8-1.5
			c0.5-0.3,0.6-0.6,0.6-0.6C21.4,18.4,19.7,14.7,19.7,14.7z"/>
		<path fill="#8CBBE9" d="M8.5,8.4c0.2,2,1.9,4,3.5,4c1.8,0,3.4-2.1,3.7-4c0.1-0.1,0.3-0.2,0.3-0.6c0,0,0.4-1.3-0.1-1.2
			C16,6,16.6,4,15.5,2.7c0,0-0.5-0.7-1.8-1.1c0,0-0.1-0.1-0.1-0.1c0,0,0,0,0.1,0.1c-0.1,0-0.1,0-0.2-0.1c-0.1-0.1-0.1-0.1-0.2-0.2
			c0,0,0.1,0.1,0.2,0.2c0,0-0.1,0-0.1,0c-0.1-0.1-0.1-0.2-0.2-0.3c0,0,0,0.1,0.1,0.2c-0.2-0.2-0.7-0.6-0.7-1c0,0-0.3,0.1-0.5,0.4
			c0.1-0.2,0.2-0.4,0.4-0.6c0,0-0.2,0.1-0.4,0.3c-0.1,0.1-0.5,0.3-0.6,0.7l-0.1-0.1c0.1-0.1,0.1-0.2,0.2-0.3c0,0-0.1,0.1-0.3,0.3
			L11,1.1C11,1,11.1,0.9,11.2,0.7c0,0-0.1,0.1-0.2,0.2c0-0.1,0-0.3-0.4,0.2c0,0-1.9,0.8-2.4,2.5c0,0-0.3,0.8,0.1,3
			C7.7,6.3,8.1,7.7,8.1,7.7C8.2,8.1,8.4,8.3,8.5,8.4z M8.4,7.6L8.4,7.6L8.4,7.6z M11.8,0.7c-0.1,0.1-0.2,0.3-0.2,0.5l-0.1,0
			C11.6,0.9,11.7,0.8,11.8,0.7z"/>
	</g>
	<g id="ui_x5F_searchField_x5F_inset_x5F_light">
	</g>
</g>
</svg>
