<?xml version="1.0" encoding="utf-8"?>
<!-- Generator: Adobe Illustrator 18.0.0, SVG Export Plug-In . SVG Version: 6.00 Build 0)  -->
<!DOCTYPE svg PUBLIC "-//W3C//DTD SVG 1.1//EN" "http://www.w3.org/Graphics/SVG/1.1/DTD/svg11.dtd">
<svg version="1.1" xmlns="http://www.w3.org/2000/svg" xmlns:xlink="http://www.w3.org/1999/xlink" x="0px" y="0px"
	 viewBox="0 0 41 41" enable-background="new 0 0 41 41" xml:space="preserve">
<g id="Capa_1">
</g>
<g id="MAPA">
	<g id="ui_x5F_buttonCircle_big_x5F_blue">
	</g>
</g>
<g id="BOTONES">
</g>
<g id="SUPERIOR_BAR">
</g>
<g id="BUSCADOR-LUPA_1_">
</g>
<g id="Capa_4">
</g>
<g id="categorias">
</g>
<g id="BUSCADOR_EXPANDIDO">
</g>
<g id="CAPA-OSCURECIDA">
</g>
<g id="MENU_LATERAL_IZDO">
</g>
<g id="VENTANA-EMERGENTE-REGISTRO">
</g>
<g id="MENU_ANDROID_INFERIOR">
	<g id="ui_x5F_button_x5F_raised_2">
	</g>
	<g id="ui_x5F_dialog_x5F_light_2">
	</g>
	<g id="ic_x5F_radioButtonOn_x5F_color_x0D_">
	</g>
	<g id="ui_x5F_searchField_x5F_inset_x5F_light">
	</g>
	<g>
		<circle fill="#00BCD4" cx="20.5" cy="20.5" r="20"/>
		<path id="_x3C_Group_x3E__1_" fill="#FFFFFF" d="M20.5,14C20.5,14,20.4,14,20.5,14L20.5,14L20.5,14L20.5,14L20.5,14L20.5,14
			L20.5,14C20.4,14,20.4,14,20.5,14c-1.7,0-3.4,0.7-4.6,1.8l-1.3-1.3c-0.1-0.1-0.2-0.1-0.2,0c-0.1,0-0.1,0.1-0.1,0.2V19
			c0,0.1,0.1,0.2,0.2,0.2h4.3h0c0.1,0,0.2-0.1,0.2-0.2c0-0.1,0-0.2-0.1-0.2l-1.3-1.3c0.8-0.7,1.8-1.2,2.9-1.2c2.3,0,4.1,1.9,4.1,4.2
			c0,2.3-1.9,4.1-4.2,4.1l0,2.3h0c3.5,0,6.4-2.9,6.5-6.5C26.9,17,24,14.1,20.5,14z"/>
	</g>
</g>
</svg>
