<?xml version="1.0" encoding="utf-8"?>
<!-- Generator: Adobe Illustrator 18.0.0, SVG Export Plug-In . SVG Version: 6.00 Build 0)  -->
<!DOCTYPE svg PUBLIC "-//W3C//DTD SVG 1.1//EN" "http://www.w3.org/Graphics/SVG/1.1/DTD/svg11.dtd">
<svg version="1.1" xmlns="http://www.w3.org/2000/svg" xmlns:xlink="http://www.w3.org/1999/xlink" x="0px" y="0px"
	 viewBox="0 0 47.9 34.4" enable-background="new 0 0 47.9 34.4" xml:space="preserve">
<g id="Capa_1">
</g>
<g id="MAPA">
	<g id="ui_x5F_buttonCircle_big_x5F_blue">
	</g>
</g>
<g id="BOTONES">
</g>
<g id="SUPERIOR_BAR">
</g>
<g id="BUSCADOR-LUPA_1_">
</g>
<g id="Capa_4">
</g>
<g id="categorias">
</g>
<g id="BUSCADOR_EXPANDIDO">
</g>
<g id="CAPA-OSCURECIDA">
</g>
<g id="MENU_LATERAL_IZDO">
</g>
<g id="VENTANA-EMERGENTE-REGISTRO">
</g>
<g id="MENU_ANDROID_INFERIOR">
	<g id="ui_x5F_button_x5F_raised_2">
	</g>
	<g id="ui_x5F_dialog_x5F_light_2">
	</g>
	<g id="ic_x5F_radioButtonOn_x5F_color_x0D_">
	</g>
	<path fill="#1976D2" d="M15,8.2C15,8.2,15,8.2,15,8.2L15,8.2c-4.3,0-7.7,1.7-9.8,4.2c-0.3,0.4-0.6,0.8-0.9,1.2h1.2
		C5.7,13.4,5.9,13.2,6,13c1.9-2.3,4.9-3.8,9-3.8l0-0.5l0,0.5l0-0.2l0,0.2c3.7,0,7,1.7,9,4.4h1.2C23.1,10.4,19.4,8.2,15,8.2z"/>
	<path fill="#1976D2" d="M15.1,5.7C15.1,5.7,15,5.7,15.1,5.7L15.1,5.7c-5.3,0-9.3,2-11.8,5c-0.8,0.9-1.4,1.9-1.9,3l1.1,0
		C2.9,12.8,3.4,12,4,11.3C6.3,8.5,10,6.7,15.1,6.7l0-0.5l0,0.5h0c5.3,0,9.8,2.8,12.1,7h1.1C25.9,8.9,20.9,5.7,15.1,5.7z"/>
	<path fill="#1976D2" d="M15,10.9c-3.1,0-5.5,1.1-7.2,2.8h1.5c1.4-1.1,3.3-1.8,5.7-1.8h0c2,0,3.8,0.7,5.3,1.8h1.5
		C20.1,11.9,17.7,10.9,15,10.9L15,10.9z"/>
	<path fill="#1976D2" d="M19.7,15.4c-1.1-1-2.9-2-5.1-1.9c-3.7,0.3-6.6,3-6.8,6.6c-0.1,2.1,0.5,3.4,1.3,4.7c1.9,2.9,4,6.1,5.8,8.8
		c1.8-2.7,3.9-6,5.8-8.8c0.7-1,1.2-2.1,1.3-3.6C22.1,18.6,21,16.6,19.7,15.4z M13.6,25.4c-3.4-0.8-4.6-5.4-2.4-7.9
		c0.8-1,2.1-1.6,3.8-1.6c2.5,0,4.6,1.9,4.8,4.3C20,23.4,17.1,26.2,13.6,25.4z"/>
	<path fill-rule="evenodd" clip-rule="evenodd" fill="#1976D2" d="M14.4,24.5c-3-0.7-4-4.8-2.2-7.1c0.3-0.3,0.6-0.6,1-0.8
		c-0.6,0.3-1.1,0.6-1.5,1.1c-1.9,2.2-0.9,6.3,2.2,7.1c1.2,0.3,2.4,0.1,3.3-0.5C16.3,24.6,15.4,24.7,14.4,24.5z"/>
	<path fill="#1976D2" d="M38.7,2.3C38.6,2.3,38.6,2.3,38.7,2.3L38.7,2.3c-2.6,0-4.6,1-5.8,2.5c-0.2,0.2-0.4,0.5-0.5,0.7H33
		c0.1-0.1,0.2-0.2,0.3-0.4c1.1-1.4,2.9-2.3,5.3-2.3l0-0.3l0,0.3l0-0.1l0,0.1c2.2,0,4.1,1,5.4,2.6h0.7C43.4,3.6,41.2,2.3,38.7,2.3z"
		/>
	<path fill="#1976D2" d="M38.7,0.8C38.7,0.8,38.6,0.8,38.7,0.8L38.7,0.8c-3.1,0-5.5,1.2-7,3c-0.5,0.5-0.8,1.1-1.1,1.8l0.7,0
		c0.3-0.5,0.6-1,0.9-1.4c1.4-1.7,3.6-2.8,6.6-2.8l0-0.3l0,0.3h0c3.1,0,5.8,1.7,7.2,4.1h0.7C45.1,2.7,42.1,0.8,38.7,0.8z"/>
	<path fill="#1976D2" d="M38.6,3.9c-1.8,0-3.3,0.6-4.3,1.6h0.9c0.8-0.6,2-1,3.4-1h0c1.2,0,2.3,0.4,3.1,1h0.9
		C41.6,4.5,40.2,3.9,38.6,3.9L38.6,3.9z"/>
	<path fill="#1976D2" d="M41.4,6.6c-0.6-0.6-1.7-1.2-3-1.1c-2.2,0.2-3.9,1.8-4.1,3.9c-0.1,1.2,0.3,2,0.8,2.8
		c1.1,1.7,2.4,3.6,3.5,5.2c1-1.6,2.3-3.6,3.4-5.2c0.4-0.6,0.7-1.3,0.8-2.1C42.8,8.5,42.2,7.3,41.4,6.6z M37.8,12.5
		c-2-0.5-2.7-3.2-1.4-4.7c0.5-0.6,1.2-1,2.3-1c1.5,0,2.7,1.1,2.8,2.5C41.6,11.3,39.9,13,37.8,12.5z"/>
	<path fill-rule="evenodd" clip-rule="evenodd" fill="#1976D2" d="M38.3,12c-1.8-0.4-2.4-2.9-1.3-4.2c0.2-0.2,0.3-0.4,0.6-0.5
		c-0.4,0.2-0.7,0.4-0.9,0.6c-1.1,1.3-0.5,3.8,1.3,4.2c0.7,0.2,1.4,0,2-0.3C39.4,12,38.8,12.1,38.3,12z"/>
	<g id="ui_x5F_searchField_x5F_inset_x5F_light">
	</g>
	<g>
		<g>
			<path fill="#1976D2" d="M15.1,33.7c-0.1,0-0.2-0.1-0.3-0.2c-0.1-0.2-0.1-0.4,0.1-0.5l0.8-0.6c0.2-0.1,0.4-0.1,0.5,0.1
				c0.1,0.2,0.1,0.4-0.1,0.5l-0.8,0.6C15.2,33.7,15.2,33.7,15.1,33.7z"/>
		</g>
		<g>
			<path fill="#1976D2" d="M17.4,32.2c-0.1,0-0.2-0.1-0.3-0.2c-0.1-0.2-0.1-0.4,0.1-0.5l1.4-1c0.2-0.1,0.4-0.1,0.5,0.1
				c0.1,0.2,0.1,0.4-0.1,0.5l-1.4,1C17.5,32.2,17.4,32.2,17.4,32.2z"/>
		</g>
		<g>
			<path fill="#1976D2" d="M20.2,30.2c-0.1,0-0.2-0.1-0.3-0.2c-0.1-0.2-0.1-0.4,0.1-0.5l1.4-1c0.2-0.1,0.4-0.1,0.5,0.1
				c0.1,0.2,0.1,0.4-0.1,0.5l-1.4,1C20.4,30.2,20.3,30.2,20.2,30.2z M23.1,28.3c-0.1,0-0.2-0.1-0.3-0.2c-0.1-0.2-0.1-0.4,0.1-0.5
				l1.4-1c0.2-0.1,0.4-0.1,0.5,0.1c0.1,0.2,0.1,0.4-0.1,0.5l-1.4,1C23.3,28.2,23.2,28.3,23.1,28.3z M26,26.3c-0.1,0-0.2-0.1-0.3-0.2
				c-0.1-0.2-0.1-0.4,0.1-0.5l1.4-1c0.2-0.1,0.4-0.1,0.5,0.1c0.1,0.2,0.1,0.4-0.1,0.5l-1.4,1C26.2,26.3,26.1,26.3,26,26.3z
				 M28.9,24.3c-0.1,0-0.2-0.1-0.3-0.2c-0.1-0.2-0.1-0.4,0.1-0.5l1.4-1c0.2-0.1,0.4-0.1,0.5,0.1c0.1,0.2,0.1,0.4-0.1,0.5l-1.4,1
				C29,24.3,29,24.3,28.9,24.3z M31.8,22.4c-0.1,0-0.2-0.1-0.3-0.2c-0.1-0.2-0.1-0.4,0.1-0.5l1.4-1c0.2-0.1,0.4-0.1,0.5,0.1
				c0.1,0.2,0.1,0.4-0.1,0.5l-1.4,1C31.9,22.3,31.9,22.4,31.8,22.4z M34.7,20.4c-0.1,0-0.2-0.1-0.3-0.2c-0.1-0.2-0.1-0.4,0.1-0.5
				l1.4-1c0.2-0.1,0.4-0.1,0.5,0.1c0.1,0.2,0.1,0.4-0.1,0.5l-1.4,1C34.8,20.4,34.7,20.4,34.7,20.4z"/>
		</g>
		<g>
			<path fill="#1976D2" d="M37.5,18.4c-0.1,0-0.2-0.1-0.3-0.2c-0.1-0.2-0.1-0.4,0.1-0.5l0.8-0.6c0.2-0.1,0.4-0.1,0.5,0.1
				c0.1,0.2,0.1,0.4-0.1,0.5l-0.8,0.6C37.7,18.4,37.6,18.4,37.5,18.4z"/>
		</g>
	</g>
</g>
</svg>
