<?xml version="1.0" encoding="UTF-8" standalone="no"?>
<!-- Generator: Adobe Illustrator 16.0.0, SVG Export Plug-In . SVG Version: 6.00 Build 0)  -->

<svg
   xmlns:osb="http://www.openswatchbook.org/uri/2009/osb"
   xmlns:dc="http://purl.org/dc/elements/1.1/"
   xmlns:cc="http://creativecommons.org/ns#"
   xmlns:rdf="http://www.w3.org/1999/02/22-rdf-syntax-ns#"
   xmlns:svg="http://www.w3.org/2000/svg"
   xmlns="http://www.w3.org/2000/svg"
   xmlns:xlink="http://www.w3.org/1999/xlink"
   xmlns:sodipodi="http://sodipodi.sourceforge.net/DTD/sodipodi-0.dtd"
   xmlns:inkscape="http://www.inkscape.org/namespaces/inkscape"
   version="1.1"
   id="Layer_1"
   x="0px"
   y="0px"
   width="14px"
   height="14px"
   viewBox="0 0 14 14"
   style="enable-background:new 0 0 14 14;"
   xml:space="preserve"
   inkscape:version="0.48.3.1 r9886"
   sodipodi:docname="search-black.svg"><metadata
   id="metadata9"><rdf:RDF><cc:Work
       rdf:about=""><dc:format>image/svg+xml</dc:format><dc:type
         rdf:resource="http://purl.org/dc/dcmitype/StillImage" /></cc:Work></rdf:RDF></metadata><defs
   id="defs7"><linearGradient
     id="linearGradient3760"
     osb:paint="solid"><stop
       style="stop-color:#000000;stop-opacity:0.27450982;"
       offset="0"
       id="stop3762" /></linearGradient><linearGradient
     id="linearGradient3754"
     osb:paint="solid"><stop
       style="stop-color:#000000;stop-opacity:1;"
       offset="0"
       id="stop3756" /></linearGradient><linearGradient
     inkscape:collect="always"
     xlink:href="#linearGradient3760"
     id="linearGradient3764"
     x1="0.15000001"
     y1="7.0005002"
     x2="13.852"
     y2="7.0005002"
     gradientUnits="userSpaceOnUse" /></defs><sodipodi:namedview
   pagecolor="#ffffff"
   bordercolor="#666666"
   borderopacity="1"
   objecttolerance="10"
   gridtolerance="10"
   guidetolerance="10"
   inkscape:pageopacity="0"
   inkscape:pageshadow="2"
   inkscape:window-width="1024"
   inkscape:window-height="709"
   id="namedview5"
   showgrid="false"
   inkscape:zoom="16.857143"
   inkscape:cx="7"
   inkscape:cy="7"
   inkscape:window-x="0"
   inkscape:window-y="27"
   inkscape:window-maximized="1"
   inkscape:current-layer="Layer_1" />
<path
   d="M10.171,8.766c0.617-0.888,0.979-1.964,0.979-3.126c0-3.037-2.463-5.5-5.5-5.5s-5.5,2.463-5.5,5.5s2.463,5.5,5.5,5.5  c1.152,0,2.223-0.355,3.104-0.962l3.684,3.683l1.414-1.414L10.171,8.766z M5.649,9.14c-1.933,0-3.5-1.567-3.5-3.5  c0-1.933,1.567-3.5,3.5-3.5c1.933,0,3.5,1.567,3.5,3.5C9.149,7.572,7.582,9.14,5.649,9.14z"
   id="path3"
   style="fill-opacity:1.0;fill:url(#linearGradient3764)" />
</svg>