<?xml version="1.0" encoding="utf-8"?>
<!-- Generator: Adobe Illustrator 18.0.0, SVG Export Plug-In . SVG Version: 6.00 Build 0)  -->
<!DOCTYPE svg PUBLIC "-//W3C//DTD SVG 1.1//EN" "http://www.w3.org/Graphics/SVG/1.1/DTD/svg11.dtd">
<svg version="1.1" xmlns="http://www.w3.org/2000/svg" xmlns:xlink="http://www.w3.org/1999/xlink" x="0px" y="0px"
	 viewBox="0 0 37 37" enable-background="new 0 0 37 37" xml:space="preserve">
<g id="Capa_1">
</g>
<g id="MAPA">
	<g id="ui_x5F_buttonCircle_big_x5F_blue">
	</g>
</g>
<g id="BOTONES">
</g>
<g id="SUPERIOR_BAR">
</g>
<g id="BUSCADOR-LUPA_1_">
</g>
<g id="Capa_4">
</g>
<g id="categorias">
</g>
<g id="BUSCADOR_EXPANDIDO">
</g>
<g id="CAPA-OSCURECIDA">
</g>
<g id="MENU_LATERAL_IZDO">
</g>
<g id="VENTANA-EMERGENTE-REGISTRO">
</g>
<g id="MENU_ANDROID_INFERIOR">
	<g id="ui_x5F_button_x5F_raised_2">
	</g>
	<g id="ui_x5F_dialog_x5F_light_2">
	</g>
	<g>
		<circle fill="#64CCEF" stroke="#FFFFFF" stroke-miterlimit="10" cx="18.5" cy="18.5" r="18"/>
		<path id="twit_4_" fill="#FFFFFF" d="M27.7,13.8c-0.7,0.3-1.4,0.5-2.2,0.6c0.8-0.5,1.4-1.2,1.7-2.1c-0.7,0.4-1.5,0.7-2.4,0.9
			C24.1,12.4,23.1,12,22,12c-2.1,0-3.8,1.7-3.8,3.8c0,0.3,0,0.6,0.1,0.9c-3.1-0.2-5.9-1.7-7.8-4c-0.3,0.6-0.5,1.2-0.5,1.9
			c0,1.3,0.7,2.5,1.7,3.1c-0.6,0-1.2-0.2-1.7-0.5v0c0,1.8,1.3,3.4,3,3.7c-0.3,0.1-0.7,0.1-1,0.1c-0.2,0-0.5,0-0.7-0.1
			c0.5,1.5,1.9,2.6,3.5,2.6c-1.3,1-2.9,1.6-4.7,1.6c-0.3,0-0.6,0-0.9-0.1c1.7,1.1,3.7,1.7,5.8,1.7c7,0,10.8-5.8,10.8-10.8
			c0-0.2,0-0.3,0-0.5C26.6,15.2,27.2,14.5,27.7,13.8"/>
	</g>
	<g id="ic_x5F_radioButtonOn_x5F_color_x0D_">
	</g>
	<g id="ui_x5F_searchField_x5F_inset_x5F_light">
	</g>
</g>
</svg>
